<?xml version="1.0" encoding="utf-8"?>
<!-- Generator: Adobe Illustrator 23.0.2, SVG Export Plug-In . SVG Version: 6.00 Build 0)  -->
<svg version="1.1" id="svg4435" xmlns:svg="http://www.w3.org/2000/svg"
	 xmlns="http://www.w3.org/2000/svg" xmlns:xlink="http://www.w3.org/1999/xlink" x="0px" y="0px" viewBox="0 0 562.5 261.1"
	 style="enable-background:new 0 0 562.5 261.1;" xml:space="preserve">
<style type="text/css">
	.st0{fill:#008949;}
</style>
<g id="layer1" transform="translate(-548.99107,-36.378074)">
	<path id="path87" class="st0" d="M827.7,36.4L790.3,122l-71.8-66.4l4.6,96.2l-96.2-39.7l43.8,86.8l-102.9-2.3l71.4,66L549,297.5
		h166.8c4.4-59.2,54.2-106,115-106c60.8,0,110.5,46.8,115,106h165.7l-96.6-34.4l74.5-66l-105.6,5.4l42.8-90l-92.1,39.2l1.9-96.2
		l-74.5,69.1L827.7,36.4z M830.4,203.6c-53.7,0-97.8,41.5-101.4,93.9h202.7C928,245.1,884.1,203.6,830.4,203.6z"/>
</g>
</svg>
