<?xml version="1.0" encoding="UTF-8" standalone="no"?>
<svg
   xmlns:dc="http://purl.org/dc/elements/1.1/"
   xmlns:cc="http://creativecommons.org/ns#"
   xmlns:rdf="http://www.w3.org/1999/02/22-rdf-syntax-ns#"
   xmlns:svg="http://www.w3.org/2000/svg"
   xmlns="http://www.w3.org/2000/svg"
   xmlns:sodipodi="http://sodipodi.sourceforge.net/DTD/sodipodi-0.dtd"
   xmlns:inkscape="http://www.inkscape.org/namespaces/inkscape"
   inkscape:version="1.0 (4035a4fb49, 2020-05-01)"
   sodipodi:docname="SYRIZA_logo_2020 (2).svg"
   id="svg8"
   version="1.1"
   viewBox="0 0 196.74067 85.97514"
   height="85.975143mm"
   width="196.74068mm">
  <sodipodi:namedview
     fit-margin-bottom="0"
     fit-margin-right="0"
     fit-margin-left="0"
     fit-margin-top="0"
     lock-margins="true"
     inkscape:current-layer="svg8"
     inkscape:window-maximized="1"
     inkscape:window-y="-8"
     inkscape:window-x="-8"
     inkscape:cy="169.89413"
     inkscape:cx="300.56922"
     inkscape:zoom="1.2099192"
     showgrid="false"
     id="namedview7"
     inkscape:window-height="1017"
     inkscape:window-width="1920"
     inkscape:pageshadow="2"
     inkscape:pageopacity="0"
     guidetolerance="10"
     gridtolerance="10"
     objecttolerance="10"
     borderopacity="1"
     bordercolor="#666666"
     pagecolor="#ffffff"
     inkscape:document-rotation="0" />
  <defs
     id="defs2" />
  <metadata
     id="metadata5">
    <rdf:RDF>
      <cc:Work
         rdf:about="">
        <dc:format>image/svg+xml</dc:format>
        <dc:type
           rdf:resource="http://purl.org/dc/dcmitype/StillImage" />
        <dc:title />
      </cc:Work>
    </rdf:RDF>
  </metadata>
  <path
     d="M 1.9173628,23.68217 A 1.9184219,1.9184219 0 0 0 0.7884567,27.150921 L 19.688848,40.90678 12.540409,63.05717 a 1.9184219,1.9184219 0 0 0 2.953126,2.14258 L 35.409551,50.750532 a 1.9182301,1.9182301 0 0 0 0.427733,-2.67969 1.9182301,1.9182301 0 0 0 -2.679687,-0.42578 L 17.995488,58.643108 23.766971,40.764202 A 1.9184219,1.9184219 0 0 0 23.069707,38.623577 L 7.8118936,27.51811 H 26.618534 a 1.9182301,1.9182301 0 0 0 1.919922,-1.91797 1.9182301,1.9182301 0 0 0 -1.919922,-1.91797 z M 34.241735,3.1070126e-4 A 1.9182301,1.9182301 0 0 0 33.683113,0.09436187 1.9182301,1.9182301 0 0 0 32.452697,2.5123019 L 44.789413,40.484143 a 1.9182301,1.9182301 0 0 0 0.193786,0.597897 l 7.576799,23.321058 a 1.9182301,1.9182301 0 0 0 2.41794,1.231966 1.9182301,1.9182301 0 0 0 1.230415,-2.415874 L 48.9628,40.917192 67.866556,27.203819 a 1.9182301,1.9182301 0 0 0 0.425813,-2.677874 1.9182301,1.9182301 0 0 0 -1.607653,-0.791165 1.9182301,1.9182301 0 0 0 -1.072285,0.363283 L 47.716882,37.081768 36.101052,1.3268447 A 1.9182301,1.9182301 0 0 0 34.241735,3.1070126e-4 Z"
     style="color:#000000;font-style:normal;font-variant:normal;font-weight:normal;font-stretch:normal;font-size:medium;line-height:normal;font-family:sans-serif;font-variant-ligatures:normal;font-variant-position:normal;font-variant-caps:normal;font-variant-numeric:normal;font-variant-alternates:normal;font-variant-east-asian:normal;font-feature-settings:normal;font-variation-settings:normal;text-indent:0;text-align:start;text-decoration:none;text-decoration-line:none;text-decoration-style:solid;text-decoration-color:#000000;letter-spacing:normal;word-spacing:normal;text-transform:none;writing-mode:lr-tb;direction:ltr;text-orientation:mixed;dominant-baseline:auto;baseline-shift:baseline;text-anchor:start;white-space:normal;shape-padding:0;shape-margin:0;inline-size:0;clip-rule:nonzero;display:inline;overflow:visible;visibility:visible;opacity:1;isolation:auto;mix-blend-mode:normal;color-interpolation:sRGB;color-interpolation-filters:linearRGB;solid-color:#000000;solid-opacity:1;vector-effect:none;fill:#d3232a;fill-opacity:1;fill-rule:nonzero;stroke:none;stroke-width:3.83646;stroke-linecap:round;stroke-linejoin:round;stroke-miterlimit:4;stroke-dasharray:none;stroke-dashoffset:0;stroke-opacity:1;color-rendering:auto;image-rendering:auto;shape-rendering:auto;text-rendering:auto;enable-background:accumulate;stop-color:#000000;stop-opacity:1"
     id="path1462" />
  <path
     d="m 127.54432,23.68217 a 1.9182301,1.9182301 0 0 0 -1.91797,1.91797 1.9182301,1.9182301 0 0 0 1.91797,1.91797 H 146.7533 L 123.974,62.609905 a 1.9184219,1.9184219 0 0 0 1.60743,2.962892 h 19.6289 a 1.9182301,1.9182301 0 0 0 1.91797,-1.91797 1.9182301,1.9182301 0 0 0 -1.91797,-1.917967 h -16.0957 L 151.89588,26.645061 A 1.9184219,1.9184219 0 0 0 150.2865,23.68217 Z m -13.77735,0 a 1.9182301,1.9182301 0 0 0 -1.91797,1.91797 v 38.054687 a 1.9182301,1.9182301 0 0 0 1.91797,1.91797 1.9182301,1.9182301 0 0 0 1.91797,-1.91797 V 25.60014 a 1.9182301,1.9182301 0 0 0 -1.91797,-1.91797 z M 88.1908,23.514202 78.690801,23.68217 a 1.9184219,1.9184219 0 0 0 -1.884768,1.91797 v 38.054687 a 1.9182301,1.9182301 0 0 0 1.91797,1.91797 1.9182301,1.9182301 0 0 0 1.917967,-1.91797 v -36.16992 l 7.617191,-0.134768 a 1.9184219,1.9184219 0 0 0 0.04297,0 c 4.2771,-0.173905 7.17319,1.094769 9.074221,2.957031 1.901029,1.862264 2.834998,4.409673 2.804678,6.994141 -0.0303,2.584469 -1.031927,5.15226 -2.947259,7.013673 -1.915329,1.861412 -4.74749,3.097318 -8.80664,2.900389 a 1.9182301,1.9182301 0 0 0 -2.00977,1.82422 1.9182301,1.9182301 0 0 0 1.82422,2.007812 c 4.955802,0.240429 8.970341,-1.360678 11.666021,-3.980469 2.695668,-2.619787 4.067788,-6.175338 4.109368,-9.720701 0.0416,-3.545364 -1.25371,-7.134979 -3.95508,-9.781252 -2.701357,-2.646272 -6.779298,-4.257606 -11.914059,-4.048828 z"
     style="color:#000000;font-style:normal;font-variant:normal;font-weight:normal;font-stretch:normal;font-size:medium;line-height:normal;font-family:sans-serif;font-variant-ligatures:normal;font-variant-position:normal;font-variant-caps:normal;font-variant-numeric:normal;font-variant-alternates:normal;font-variant-east-asian:normal;font-feature-settings:normal;font-variation-settings:normal;text-indent:0;text-align:start;text-decoration:none;text-decoration-line:none;text-decoration-style:solid;text-decoration-color:#000000;letter-spacing:normal;word-spacing:normal;text-transform:none;writing-mode:lr-tb;direction:ltr;text-orientation:mixed;dominant-baseline:auto;baseline-shift:baseline;text-anchor:start;white-space:normal;shape-padding:0;shape-margin:0;inline-size:0;clip-rule:nonzero;display:inline;overflow:visible;visibility:visible;opacity:1;isolation:auto;mix-blend-mode:normal;color-interpolation:sRGB;color-interpolation-filters:linearRGB;solid-color:#000000;solid-opacity:1;vector-effect:none;fill:#af191f;fill-opacity:1;fill-rule:nonzero;stroke:none;stroke-width:3.83646;stroke-linecap:round;stroke-linejoin:round;stroke-miterlimit:4;stroke-dasharray:none;stroke-dashoffset:0;stroke-opacity:1;color-rendering:auto;image-rendering:auto;shape-rendering:auto;text-rendering:auto;enable-background:accumulate;stop-color:#000000;stop-opacity:1"
     id="path1470" />
  <path
     id="path1417"
     d="m 175.14373,23.682069 a 1.9184219,1.9184219 0 0 0 -1.66398,0.963248 l -21.82399,38.054525 a 1.9182301,1.9182301 0 0 0 0.709,2.618963 1.9182301,1.9182301 0 0 0 2.61896,-0.711068 l 20.07216,-34.997866 9.10383,17.603578 h -9.14672 a 1.9182301,1.9182301 0 0 0 -1.91772,1.917714 1.9182301,1.9182301 0 0 0 1.91772,1.920295 h 11.13162 l 6.97373,13.484447 a 1.9182301,1.9182301 0 0 0 2.58434,0.822172 1.9182301,1.9182301 0 0 0 0.82424,-2.584336 L 176.84698,24.719215 a 1.9184219,1.9184219 0 0 0 -1.70325,-1.037146 z"
     style="color:#000000;font-style:normal;font-variant:normal;font-weight:normal;font-stretch:normal;font-size:medium;line-height:normal;font-family:sans-serif;font-variant-ligatures:normal;font-variant-position:normal;font-variant-caps:normal;font-variant-numeric:normal;font-variant-alternates:normal;font-variant-east-asian:normal;font-feature-settings:normal;font-variation-settings:normal;text-indent:0;text-align:start;text-decoration:none;text-decoration-line:none;text-decoration-style:solid;text-decoration-color:#000000;letter-spacing:normal;word-spacing:normal;text-transform:none;writing-mode:lr-tb;direction:ltr;text-orientation:mixed;dominant-baseline:auto;baseline-shift:baseline;text-anchor:start;white-space:normal;shape-padding:0;shape-margin:0;inline-size:0;clip-rule:nonzero;display:inline;overflow:visible;visibility:visible;opacity:1;isolation:auto;mix-blend-mode:normal;color-interpolation:sRGB;color-interpolation-filters:linearRGB;solid-color:#000000;solid-opacity:1;vector-effect:none;fill:#861f26;fill-opacity:1;fill-rule:nonzero;stroke:none;stroke-width:3.83646;stroke-linecap:round;stroke-linejoin:round;stroke-miterlimit:4;stroke-dasharray:none;stroke-dashoffset:0;stroke-opacity:1;color-rendering:auto;image-rendering:auto;shape-rendering:auto;text-rendering:auto;enable-background:accumulate;stop-color:#000000;stop-opacity:1" />
  <path
     id="path1197"
     style="color:#000000;font-style:normal;font-variant:normal;font-weight:normal;font-stretch:normal;font-size:medium;line-height:normal;font-family:sans-serif;font-variant-ligatures:normal;font-variant-position:normal;font-variant-caps:normal;font-variant-numeric:normal;font-variant-alternates:normal;font-variant-east-asian:normal;font-feature-settings:normal;font-variation-settings:normal;text-indent:0;text-align:start;text-decoration:none;text-decoration-line:none;text-decoration-style:solid;text-decoration-color:#000000;letter-spacing:normal;word-spacing:normal;text-transform:none;writing-mode:lr-tb;direction:ltr;text-orientation:mixed;dominant-baseline:auto;baseline-shift:baseline;text-anchor:start;white-space:normal;shape-padding:0;shape-margin:0;inline-size:0;clip-rule:nonzero;display:inline;overflow:visible;visibility:visible;opacity:1;isolation:auto;mix-blend-mode:normal;color-interpolation:sRGB;color-interpolation-filters:linearRGB;solid-color:#000000;solid-opacity:1;vector-effect:none;fill:#99202d;fill-opacity:1;fill-rule:nonzero;stroke:none;stroke-width:0.79375;stroke-linecap:butt;stroke-linejoin:miter;stroke-miterlimit:4;stroke-dasharray:none;stroke-dashoffset:0;stroke-opacity:1;color-rendering:auto;image-rendering:auto;shape-rendering:auto;text-rendering:auto;enable-background:accumulate;stop-color:#000000;stop-opacity:1"
     d="m 172.01999,78.475092 h -0.91984 l -3.2861,6.964947 -0.14676,0.31058 h 1.60972 l 0.58704,-1.24437 h 3.39204 l 0.58705,1.24437 h 1.60972 l -0.14676,-0.31058 z m -0.45993,2.435507 1.00976,2.14096 h -2.01951 z m -51.86905,-2.435507 0.1757,0.302826 1.12861,1.939411 0.36536,0.62891 1.15445,1.98489 v 2.41949 h 1.45521 v -2.41587 l 1.52135,-2.61742 1.12706,-1.939411 0.17674,-0.302826 h -1.6831 l -0.8785,1.511537 -0.36742,0.6289 10e-4,5.2e-4 -0.62373,1.0728 -0.99064,-1.70222 -0.87953,-1.511537 z m 44.98477,4.7e-5 v 7.27539 h 1.45508 v -7.27539 z m -8.86876,-4.7e-5 0.308,0.412377 2.40605,3.21324 -2.40605,3.21428 -0.32556,0.43563 h 1.81591 l 1.82417,-2.43654 1.8247,2.43654 h 1.81591 l -0.32608,-0.43563 -2.40606,-3.21428 2.40606,-3.21324 0.30851,-0.412377 h -1.81746 l -1.80558,2.411737 -1.80506,-2.411737 z m -4.29844,0 h -0.91984 l -3.2861,6.964947 -0.14677,0.31058 h 1.60972 l 0.58705,-1.24437 h 3.39204 l 0.58704,1.24437 h 1.60973 l -0.14677,-0.31058 z m -0.45992,2.435507 1.00976,2.14096 h -2.01952 z m -13.02918,-2.435507 v 7.275527 h 1.45521 v -3.89279 l 2.33577,3.22875 2.33578,-3.22875 v 3.89279 h 1.45521 v -7.275527 h -0.80306 l -2.98793,4.128947 -2.98793,-4.128947 z m -9.70483,0 v 7.275527 h 1.45469 v -3.89072 l 2.33629,3.22668 2.33577,-3.22875 v 3.89279 h 1.45521 v -7.275527 h -0.80305 l -2.98793,4.128947 -2.98793,-4.128947 z m -15.14473,-0.132765 a 0.72767691,0.72767691 0 0 0 -0.57812,1.169922 l 1.99609,2.60937 -2.00195,2.69141 a 0.72767691,0.72767691 0 0 0 0.58398,1.16211 h 5.16406 v -1.45508 h -3.71484 l 1.46484,-1.96875 a 0.72767691,0.72767691 0 0 0 -0.006,-0.87695 l -1.43554,-1.87695 h 3.6914 v -1.455082 z m -12.9533,0.132765 v 7.275527 h 1.45728 v -2.29495 h 3.4649 v 2.29495 h 1.45469 v -7.275527 h -1.45469 v 3.525367 h -3.4649 v -3.525367 z m -8.136454,0 v 7.275527 h 1.455208 v -1.51619 l 0.935861,-1.06246 2.328539,2.57865 h 1.960087 l -0.413928,-0.45889 -2.905249,-3.22047 2.773992,-3.14865 0.393258,-0.447517 h -1.938901 l -3.133659,3.558437 v -3.558437 z m -3.537197,4.7e-5 v 7.27539 h 1.455078 v -7.27539 z m -7.800611,-0.132855 v 1.455205 h 2.245857 v 5.95313 h 1.455208 v -5.95313 h 2.245858 v -1.455205 z m -8.363315,0.132808 0.175702,0.302826 1.128611,1.939411 0.365353,0.62891 1.154451,1.98489 v 2.41949 h 1.455208 v -2.41587 l 1.521355,-2.61742 1.127064,-1.939411 0.176733,-0.302826 h -1.683101 l -0.878499,1.511537 -0.367422,0.6289 0.001,5.2e-4 -0.623734,1.0728 -0.990637,-1.70222 -0.879533,-1.511537 z m -6.841959,-0.132808 v 7.632615 h 5.562452 v -1.4547 h -4.105177 v -1.54099 h 3.17345 v -1.45521 h -3.17345 v -1.72651 h 3.906221 v -1.455205 z m -5.786209,0.132808 -3.389458,7.365447 h 1.136882 6.507613 l -3.320728,-7.365447 z m 0.457853,2.484607 1.545124,3.42563 h -3.121255 z m -8.984119,-2.679872 c -2.145054,0 -3.916016,1.716232 -3.916015,3.837892 -10e-7,2.12165 1.770961,3.83984 3.916015,3.83984 2.040705,0 3.694623,-1.57071 3.855469,-3.54883 a 0.72760499,0.72760499 0 0 0 0.06055,-0.29101 0.72760499,0.72760499 0 0 0 -0.06055,-0.29102 c -0.161034,-1.97793 -1.814895,-3.546872 -3.855469,-3.546872 z m 0,1.455082 c 1.377666,0 2.460938,1.06714 2.460938,2.38281 0,1.31566 -1.083272,2.38476 -2.460938,2.38476 -1.377665,0 -2.460937,-1.0691 -2.460937,-2.38476 0,-1.31567 1.083272,-2.38281 2.460937,-2.38281 z m -9.470703,-1.455082 c -2.145054,0 -3.917969,1.716232 -3.917968,3.837892 -10e-7,2.12165 1.772914,3.83984 3.917968,3.83984 2.040061,0 3.6937,-1.56965 3.855469,-3.54687 a 0.72760499,0.72760499 0 0 0 0.06055,-0.29297 0.72760499,0.72760499 0 0 0 -0.06055,-0.29102 c -0.160995,-1.97797 -1.814868,-3.546872 -3.855469,-3.546872 z m 0,1.455082 c 1.377666,0 2.460938,1.06714 2.460938,2.38281 0,1.31566 -1.083272,2.38476 -2.460938,2.38476 -1.377666,0 -2.460937,-1.0691 -2.460937,-2.38476 0,-1.31567 1.083271,-2.38281 2.460937,-2.38281 z M 30.558594,78.354045 v 7.396484 h 1.455078 v -1.80469 h 1.951172 c 0.780009,0 1.45034,-0.39901 1.857422,-0.93359 0.407081,-0.53459 0.600372,-1.18818 0.61914,-1.8418 0.01877,-0.65362 -0.137462,-1.32349 -0.546875,-1.875 -0.409412,-0.551507 -1.112251,-0.941404 -1.929687,-0.941404 z m 1.455078,1.455074 h 1.951172 c 0.408201,0 0.593472,0.12951 0.759765,0.35352 0.166293,0.22401 0.272642,0.58639 0.261719,0.9668 -0.01092,0.3804 -0.138797,0.76102 -0.322266,1.00195 -0.183468,0.24093 -0.372354,0.35938 -0.699218,0.35937 h -1.951172 z m -9.929688,-1.455074 v 7.396484 h 1.455078 v -5.94141 h 3.435547 v 5.94141 h 1.455079 v -7.396484 z" />
</svg>
