<?xml version="1.0" encoding="utf-8"?>
<!-- Generator: Adobe Illustrator 23.0.3, SVG Export Plug-In . SVG Version: 6.00 Build 0)  -->
<svg version="1.1" id="Layer_1" xmlns="http://www.w3.org/2000/svg" xmlns:xlink="http://www.w3.org/1999/xlink" x="0px" y="0px"
	 viewBox="0 0 141.7 109.2" style="enable-background:new 0 0 141.7 109.2;" xml:space="preserve">
<style type="text/css">
	.st0{fill:#3D5AA5;}
	.st1{fill:#C61116;}
</style>
<title>Asset 1</title>
<g>
	<g id="Layer_1-2">
		<polyline class="st0" points="0,108.8 5.9,108.8 5.9,89.2 13.6,89.2 13.6,108.8 19.5,108.8 19.5,83.9 0,83.9 0,108.8 		"/>
		<path class="st0" d="M37.6,83.6c-7.6,0-12.8,5.3-12.8,12.8s5.2,12.8,12.8,12.8c7.4,0,12.8-5.2,12.8-12.8S45,83.6,37.6,83.6
			 M37.6,103.7c-3.9,0-6.7-3.3-6.7-7.3s2.8-7.3,6.7-7.3s6.7,3.2,6.7,7.3S41.5,103.7,37.6,103.7z"/>
		<polyline class="st0" points="53.1,89.2 59.6,89.2 59.6,108.8 65.6,108.8 65.6,89.2 72.1,89.2 72.1,83.9 53.1,83.9 53.1,89.2 		
			"/>
		<path class="st0" d="M82.8,83.9l-9.2,24.9h6.1l1.5-4.5H90l1.5,4.5h6.1l-9.1-24.9H82.8 M82.8,99.4l2.8-8.4h0.1l2.8,8.4L82.8,99.4z"
			/>
		<polyline class="st0" points="115.4,97.2 115.3,97.2 108.4,83.9 102.5,83.9 102.5,108.8 108.3,108.8 108.3,95.1 108.4,95.1 
			113.5,104.2 117.2,104.2 122.3,95.1 122.3,95.1 122.3,108.8 128.2,108.8 128.2,83.9 122.2,83.9 115.4,97.2 		"/>
		<rect x="135.7" y="83.9" class="st0" width="6" height="24.9"/>
		<path class="st0" d="M96.7,51c-5.2-0.9-11-0.3-15.2,1.9l0,0L81,53.2c-5.6,3.2-14.6,3.2-20.2,0l-0.2-0.1h-0.1
			c-4.2-2.3-10.2-3-15.5-2.1c2.5,3.5,5.8,6.4,9.4,8.6c4.7,2.8,10.1,4.4,15.7,4.5h1.5h0.7c5.3-0.2,10.4-1.8,14.9-4.5
			C91,57.4,94.2,54.5,96.7,51"/>
		<path class="st1" d="M102.9,32.1C102.6,14.4,88,0.2,70.3,0.6C53,0.9,39.1,14.8,38.8,32.1c0,1.3,0.1,2.5,0.2,3.8
			c0.3,2.7,1,5.3,1.9,7.8c3.1-1.3,6.4-1.8,9.7-1.7c3.2,0.1,6.3,0.9,9.1,2.4l0.2,0.1h0.1c3.3,1.7,7,2.5,10.8,2.4
			c3.7,0.1,7.3-0.7,10.6-2.3l0,0l0.5-0.3c2.8-1.5,5.9-2.3,9.1-2.3c3.3-0.2,6.6,0.4,9.7,1.7c1-2.5,1.6-5.1,1.9-7.8
			C102.9,34.6,102.9,33.4,102.9,32.1 M93.3,33.5c-4.1-0.3-8.1,0.5-11.8,2.3l0,0L81,36c-5.6,3.2-14.6,3.2-20.2,0l-0.2-0.1h-0.1
			c-3.7-1.9-7.9-2.7-12.1-2.4c0-0.5,0-0.9,0-1.4c0.4-12.4,10.7-22.2,23.2-21.8c11.9,0.4,21.5,9.9,21.8,21.8
			C93.4,32.5,93.3,33,93.3,33.5L93.3,33.5z"/>
	</g>
</g>
</svg>
