<svg xmlns="http://www.w3.org/2000/svg" width="1200" height="630" viewBox="0 0 1200 630"><rect width="100%" height="100%" fill="#f7f4ee"/><text x="96" y="58" fill="#b81d24" font-family="Inter, Arial, sans-serif" font-size="18" font-weight="700" letter-spacing="2">ΚΙΝΟ, ΠΙΘΑΝΟΤΗΤΕΣ ΚΑΙ ΑΥΤΑΠΑΤΕΣ</text><text x="96" y="96" fill="#1d2433" font-family="Inter, Arial, sans-serif" font-size="42" font-weight="800">Άλλη ταχύτητα, ίδιο τέλος</text><text x="96" y="126" fill="#5d6678" font-family="Inter, Arial, sans-serif" font-size="20">Μια σταθερή προσομοίωση των Pick 2, 5, 7 και 9 σε 101.952 κληρώσεις</text><rect x="96" y="108" width="934" height="440" fill="#ffffff" stroke="#d7d2c8"/><line x1="96" y1="548.0" x2="1030" y2="548.0" stroke="#d9d9d9" stroke-width="1"/><text x="82" y="553.0" text-anchor="end" fill="#5d6678" font-family="Inter, Arial, sans-serif" font-size="14">-25,000</text><line x1="96" y1="401.3" x2="1030" y2="401.3" stroke="#d9d9d9" stroke-width="1"/><text x="82" y="406.3" text-anchor="end" fill="#5d6678" font-family="Inter, Arial, sans-serif" font-size="14">-15,000</text><line x1="96" y1="254.7" x2="1030" y2="254.7" stroke="#d9d9d9" stroke-width="1"/><text x="82" y="259.7" text-anchor="end" fill="#5d6678" font-family="Inter, Arial, sans-serif" font-size="14">-5,000</text><line x1="96" y1="108.0" x2="1030" y2="108.0" stroke="#d9d9d9" stroke-width="1"/><text x="82" y="113.0" text-anchor="end" fill="#5d6678" font-family="Inter, Arial, sans-serif" font-size="14">5,000</text><line x1="96.0" y1="548" x2="96.0" y2="554" stroke="#6b7280" stroke-width="1"/><text x="96.0" y="574" text-anchor="middle" fill="#5d6678" font-family="Inter, Arial, sans-serif" font-size="14">0</text><line x1="279.2" y1="548" x2="279.2" y2="554" stroke="#6b7280" stroke-width="1"/><text x="279.2" y="574" text-anchor="middle" fill="#5d6678" font-family="Inter, Arial, sans-serif" font-size="14">20,000</text><line x1="462.4" y1="548" x2="462.4" y2="554" stroke="#6b7280" stroke-width="1"/><text x="462.4" y="574" text-anchor="middle" fill="#5d6678" font-family="Inter, Arial, sans-serif" font-size="14">40,000</text><line x1="645.7" y1="548" x2="645.7" y2="554" stroke="#6b7280" stroke-width="1"/><text x="645.7" y="574" text-anchor="middle" fill="#5d6678" font-family="Inter, Arial, sans-serif" font-size="14">60,000</text><line x1="828.9" y1="548" x2="828.9" y2="554" stroke="#6b7280" stroke-width="1"/><text x="828.9" y="574" text-anchor="middle" fill="#5d6678" font-family="Inter, Arial, sans-serif" font-size="14">80,000</text><line x1="1012.1" y1="548" x2="1012.1" y2="554" stroke="#6b7280" stroke-width="1"/><text x="1012.1" y="574" text-anchor="middle" fill="#5d6678" font-family="Inter, Arial, sans-serif" font-size="14">100,000</text><text x="563.0" y="606" text-anchor="middle" fill="#5d6678" font-family="Inter, Arial, sans-serif" font-size="16">Κληρώσεις</text><text x="28" y="328.0" transform="rotate(-90 28 328.0)" text-anchor="middle" fill="#5d6678" font-family="Inter, Arial, sans-serif" font-size="16">Σωρευτικό καθαρό αποτέλεσμα (€)</text><polyline fill="none" stroke="#4C78A8" stroke-width="3" points="96.0,181.3 96.9,181.5 97.8,181.6 98.7,181.9 99.7,182.2 100.6,182.5 101.5,182.9 102.4,183.2 103.3,183.4 104.2,183.7 105.2,183.9 106.1,184.0 107.0,184.2 107.9,184.5 108.8,184.7 109.7,184.9 110.7,185.2 111.6,185.3 112.5,185.6 113.4,185.8 114.3,186.2 115.2,186.3 116.2,186.5 117.1,186.5 118.0,186.8 118.9,187.1 119.8,187.3 120.7,187.4 121.7,187.6 122.6,187.9 123.5,188.0 124.4,188.4 125.3,188.7 126.2,189.0 127.1,189.2 128.1,189.6 129.0,189.7 129.9,189.8 130.8,190.1 131.7,190.3 132.6,190.5 133.6,190.8 134.5,191.1 135.4,191.4 136.3,191.6 137.2,191.7 138.1,192.1 139.1,192.3 140.0,192.6 140.9,192.9 141.8,193.1 142.7,193.3 143.6,193.6 144.6,194.0 145.5,194.0 146.4,194.3 147.3,194.7 148.2,194.8 149.1,194.9 150.1,195.2 151.0,195.4 151.9,195.7 152.8,196.0 153.7,196.0 154.6,196.4 155.5,196.7 156.5,197.0 157.4,197.3 158.3,197.6 159.2,197.8 160.1,198.1 161.0,198.3 162.0,198.7 162.9,199.0 163.8,199.1 164.7,199.3 165.6,199.6 166.5,199.9 167.5,200.0 168.4,200.2 169.3,200.4 170.2,200.7 171.1,201.0 172.0,201.4 173.0,201.7 173.9,202.0 174.8,202.2 175.7,202.5 176.6,202.6 177.5,202.9 178.5,203.2 179.4,203.5 180.3,203.6 181.2,203.7 182.1,204.1 183.0,204.3 183.9,204.5 184.9,204.9 185.8,205.1 186.7,205.4 187.6,205.6 188.5,205.9 189.4,206.1 190.4,206.3 191.3,206.5 192.2,206.6 193.1,206.7 194.0,207.1 194.9,207.3 195.9,207.6 196.8,208.0 197.7,208.3 198.6,208.5 199.5,208.8 200.4,208.9 201.4,209.1 202.3,209.1 203.2,209.3 204.1,209.6 205.0,209.8 205.9,210.0 206.9,210.2 207.8,210.4 208.7,210.7 209.6,211.0 210.5,211.2 211.4,211.5 212.3,211.7 213.3,211.9 214.2,212.2 215.1,212.5 216.0,212.7 216.9,213.0 217.8,213.3 218.8,213.6 219.7,214.0 220.6,214.2 221.5,214.4 222.4,214.5 223.3,214.8 224.3,215.2 225.2,215.3 226.1,215.6 227.0,215.9 227.9,216.0 228.8,216.1 229.8,216.4 230.7,216.5 231.6,216.6 232.5,216.8 233.4,217.1 234.3,217.4 235.2,217.7 236.2,218.0 237.1,218.2 238.0,218.3 238.9,218.6 239.8,219.0 240.7,219.3 241.7,219.5 242.6,219.6 243.5,220.0 244.4,220.1 245.3,220.3 246.2,220.7 247.2,220.9 248.1,220.9 249.0,221.2 249.9,221.7 250.8,222.0 251.7,222.2 252.7,222.4 253.6,222.7 254.5,222.9 255.4,223.2 256.3,223.3 257.2,223.4 258.2,223.5 259.1,223.6 260.0,224.0 260.9,224.1 261.8,224.3 262.7,224.4 263.6,224.7 264.6,224.9 265.5,225.1 266.4,225.1 267.3,225.5 268.2,225.7 269.1,225.9 270.1,226.0 271.0,226.2 271.9,226.4 272.8,226.8 273.7,227.0 274.6,227.3 275.6,227.6 276.5,227.9 277.4,228.2 278.3,228.6 279.2,228.8 280.1,229.1 281.1,229.4 282.0,229.6 282.9,229.7 283.8,230.0 284.7,230.3 285.6,230.5 286.6,230.8 287.5,231.2 288.4,231.4 289.3,231.6 290.2,231.8 291.1,232.0 292.0,232.3 293.0,232.5 293.9,232.6 294.8,232.8 295.7,233.1 296.6,233.4 297.5,233.7 298.5,233.9 299.4,234.1 300.3,234.2 301.2,234.5 302.1,234.7 303.0,234.9 304.0,235.1 304.9,235.4 305.8,235.7 306.7,235.9 307.6,236.1 308.5,236.5 309.5,236.8 310.4,236.9 311.3,237.1 312.2,237.2 313.1,237.4 314.0,237.7 315.0,237.8 315.9,238.1 316.8,238.3 317.7,238.4 318.6,238.5 319.5,238.8 320.4,239.0 321.4,239.1 322.3,239.4 323.2,239.6 324.1,239.9 325.0,240.3 325.9,240.6 326.9,240.7 327.8,240.8 328.7,241.2 329.6,241.3 330.5,241.6 331.4,241.9 332.4,242.0 333.3,242.3 334.2,242.4 335.1,242.6 336.0,242.8 336.9,243.2 337.9,243.3 338.8,243.6 339.7,243.9 340.6,244.1 341.5,244.4 342.4,244.7 343.4,244.8 344.3,245.0 345.2,245.3 346.1,245.4 347.0,245.7 347.9,246.0 348.8,246.0 349.8,246.3 350.7,246.4 351.6,246.7 352.5,246.9 353.4,247.0 354.3,247.3 355.3,247.5 356.2,247.8 357.1,247.9 358.0,248.0 358.9,248.3 359.8,248.5 360.8,248.8 361.7,249.0 362.6,249.2 363.5,249.5 364.4,249.8 365.3,250.0 366.3,250.3 367.2,250.5 368.1,250.9 369.0,251.1 369.9,251.2 370.8,251.5 371.8,251.7 372.7,251.9 373.6,252.2 374.5,252.5 375.4,252.8 376.3,253.1 377.2,253.3 378.2,253.5 379.1,253.7 380.0,254.0 380.9,254.4 381.8,254.7 382.7,255.0 383.7,255.1 384.6,255.4 385.5,255.7 386.4,255.9 387.3,256.3 388.2,256.6 389.2,256.9 390.1,257.1 391.0,257.4 391.9,257.6 392.8,257.8 393.7,257.9 394.7,258.0 395.6,258.3 396.5,258.5 397.4,258.8 398.3,259.2 399.2,259.3 400.2,259.5 401.1,259.7 402.0,259.9 402.9,260.1 403.8,260.3 404.7,260.6 405.6,260.9 406.6,261.2 407.5,261.5 408.4,261.8 409.3,262.2 410.2,262.4 411.1,262.7 412.1,262.8 413.0,263.1 413.9,263.3 414.8,263.6 415.7,263.9 416.6,264.2 417.6,264.5 418.5,264.7 419.4,265.0 420.3,265.1 421.2,265.5 422.1,265.4 423.1,265.6 424.0,266.0 424.9,266.2 425.8,266.4 426.7,266.6 427.6,266.9 428.6,267.3 429.5,267.4 430.4,267.5 431.3,267.9 432.2,268.3 433.1,268.5 434.0,268.7 435.0,268.9 435.9,269.1 436.8,269.4 437.7,269.5 438.6,269.9 439.5,270.2 440.5,270.4 441.4,270.7 442.3,271.1 443.2,271.3 444.1,271.5 445.0,271.6 446.0,271.7 446.9,272.0 447.8,272.4 448.7,272.6 449.6,272.9 450.5,273.1 451.5,273.3 452.4,273.4 453.3,273.8 454.2,273.8 455.1,273.9 456.0,274.2 457.0,274.3 457.9,274.5 458.8,274.8 459.7,275.1 460.6,275.4 461.5,275.7 462.4,276.0 463.4,276.3 464.3,276.7 465.2,276.8 466.1,277.1 467.0,277.2 467.9,277.4 468.9,277.6 469.8,277.8 470.7,278.0 471.6,278.3 472.5,278.7 473.4,279.1 474.4,279.4 475.3,279.6 476.2,279.7 477.1,279.9 478.0,280.2 478.9,280.4 479.9,280.6 480.8,280.9 481.7,281.1 482.6,281.4 483.5,281.7 484.4,281.8 485.3,282.1 486.3,282.4 487.2,282.5 488.1,282.9 489.0,283.0 489.9,283.2 490.8,283.3 491.8,283.4 492.7,283.7 493.6,284.0 494.5,284.2 495.4,284.3 496.3,284.5 497.3,284.7 498.2,284.9 499.1,285.0 500.0,285.2 500.9,285.6 501.8,285.8 502.8,285.9 503.7,286.3 504.6,286.5 505.5,286.8 506.4,287.1 507.3,287.3 508.3,287.5 509.2,287.6 510.1,287.7 511.0,287.8 511.9,288.0 512.8,288.1 513.7,288.3 514.7,288.4 515.6,288.8 516.5,289.0 517.4,289.3 518.3,289.5 519.2,289.6 520.2,289.7 521.1,290.0 522.0,290.3 522.9,290.6 523.8,290.8 524.7,291.0 525.7,291.2 526.6,291.4 527.5,291.5 528.4,291.9 529.3,292.2 530.2,292.4 531.2,292.8 532.1,293.0 533.0,293.2 533.9,293.3 534.8,293.6 535.7,293.9 536.7,294.0 537.6,294.3 538.5,294.4 539.4,294.6 540.3,294.7 541.2,295.0 542.1,295.2 543.1,295.5 544.0,295.7 544.9,296.0 545.8,296.2 546.7,296.4 547.6,296.6 548.6,296.7 549.5,296.8 550.4,297.1 551.3,297.3 552.2,297.7 553.1,298.0 554.1,298.3 555.0,298.5 555.9,298.9 556.8,299.2 557.7,299.3 558.6,299.5 559.6,299.8 560.5,300.0 561.4,300.3 562.3,300.5 563.2,300.8 564.1,300.9 565.1,301.1 566.0,301.5 566.9,301.8 567.8,302.1 568.7,302.3 569.6,302.6 570.5,302.8 571.5,303.0 572.4,303.4 573.3,303.5 574.2,303.9 575.1,303.9 576.0,304.1 577.0,304.3 577.9,304.5 578.8,304.7 579.7,304.9 580.6,305.0 581.5,305.3 582.5,305.5 583.4,305.6 584.3,305.8 585.2,306.0 586.1,306.4 587.0,306.4 588.0,306.8 588.9,307.2 589.8,307.4 590.7,307.7 591.6,307.9 592.5,308.2 593.5,308.5 594.4,308.7 595.3,308.9 596.2,309.3 597.1,309.5 598.0,309.8 598.9,310.1 599.9,310.3 600.8,310.5 601.7,310.8 602.6,311.1 603.5,311.3 604.4,311.6 605.4,311.7 606.3,311.9 607.2,312.3 608.1,312.5 609.0,312.7 609.9,312.9 610.9,313.1 611.8,313.4 612.7,313.8 613.6,314.1 614.5,314.2 615.4,314.4 616.4,314.6 617.3,314.7 618.2,314.8 619.1,315.1 620.0,315.4 620.9,315.6 621.9,315.8 622.8,316.1 623.7,316.3 624.6,316.5 625.5,316.8 626.4,317.0 627.3,317.3 628.3,317.5 629.2,317.7 630.1,318.0 631.0,318.3 631.9,318.5 632.8,318.8 633.8,319.0 634.7,319.3 635.6,319.6 636.5,319.8 637.4,320.0 638.3,320.4 639.3,320.7 640.2,320.9 641.1,321.3 642.0,321.6 642.9,321.8 643.8,322.0 644.8,322.2 645.7,322.5 646.6,322.7 647.5,322.9 648.4,323.2 649.3,323.3 650.3,323.4 651.2,323.7 652.1,323.8 653.0,324.1 653.9,324.4 654.8,324.6 655.7,324.9 656.7,325.2 657.6,325.3 658.5,325.5 659.4,325.6 660.3,325.9 661.2,326.1 662.2,326.4 663.1,326.7 664.0,327.0 664.9,327.1 665.8,327.2 666.7,327.5 667.7,327.5 668.6,327.7 669.5,327.8 670.4,328.1 671.3,328.3 672.2,328.4 673.2,328.5 674.1,328.8 675.0,329.0 675.9,329.3 676.8,329.6 677.7,329.9 678.7,330.1 679.6,330.4 680.5,330.7 681.4,330.9 682.3,331.3 683.2,331.4 684.1,331.6 685.1,331.7 686.0,331.9 686.9,332.1 687.8,332.4 688.7,332.5 689.6,332.7 690.6,333.0 691.5,333.1 692.4,333.4 693.3,333.6 694.2,333.9 695.1,334.2 696.1,334.4 697.0,334.6 697.9,334.9 698.8,335.1 699.7,335.3 700.6,335.5 701.6,335.7 702.5,335.9 703.4,336.1 704.3,336.3 705.2,336.6 706.1,336.8 707.1,337.0 708.0,337.2 708.9,337.4 709.8,337.6 710.7,338.0 711.6,338.3 712.5,338.5 713.5,338.8 714.4,339.0 715.3,339.2 716.2,339.4 717.1,339.6 718.0,339.7 719.0,340.0 719.9,340.2 720.8,340.2 721.7,340.5 722.6,340.8 723.5,341.1 724.5,341.3 725.4,341.5 726.3,341.8 727.2,342.1 728.1,342.3 729.0,342.6 730.0,342.7 730.9,343.0 731.8,343.3 732.7,343.7 733.6,344.0 734.5,344.1 735.4,344.5 736.4,344.6 737.3,345.0 738.2,345.1 739.1,345.2 740.0,345.5 740.9,345.7 741.9,345.9 742.8,346.1 743.7,346.3 744.6,346.4 745.5,346.6 746.4,346.8 747.4,347.1 748.3,347.4 749.2,347.6 750.1,347.8 751.0,348.2 751.9,348.4 752.9,348.6 753.8,349.0 754.7,349.5 755.6,349.8 756.5,350.2 757.4,350.4 758.4,350.7 759.3,351.1 760.2,351.5 761.1,351.7 762.0,352.0 762.9,352.1 763.8,352.2 764.8,352.4 765.7,352.7 766.6,352.9 767.5,353.2 768.4,353.2 769.3,353.5 770.3,353.7 771.2,354.1 772.1,354.4 773.0,354.7 773.9,355.0 774.8,355.2 775.8,355.5 776.7,355.7 777.6,355.8 778.5,356.0 779.4,356.2 780.3,356.4 781.3,356.5 782.2,356.7 783.1,357.0 784.0,357.2 784.9,357.4 785.8,357.6 786.8,357.9 787.7,358.2 788.6,358.5 789.5,358.8 790.4,359.0 791.3,359.1 792.2,359.2 793.2,359.5 794.1,359.8 795.0,360.0 795.9,360.1 796.8,360.2 797.7,360.6 798.7,360.9 799.6,361.1 800.5,361.3 801.4,361.5 802.3,361.6 803.2,361.8 804.2,361.9 805.1,362.0 806.0,362.3 806.9,362.6 807.8,362.9 808.7,363.1 809.7,363.4 810.6,363.6 811.5,363.9 812.4,364.1 813.3,364.4 814.2,364.6 815.2,364.9 816.1,365.0 817.0,365.3 817.9,365.6 818.8,365.8 819.7,366.1 820.6,366.3 821.6,366.6 822.5,366.9 823.4,367.1 824.3,367.3 825.2,367.3 826.1,367.6 827.1,368.0 828.0,368.2 828.9,368.6 829.8,368.9 830.7,369.2 831.6,369.5 832.6,369.8 833.5,370.0 834.4,370.2 835.3,370.5 836.2,370.8 837.1,371.0 838.1,371.1 839.0,371.3 839.9,371.6 840.8,371.9 841.7,372.0 842.6,372.1 843.6,372.2 844.5,372.4 845.4,372.7 846.3,372.9 847.2,373.2 848.1,373.4 849.0,373.6 850.0,373.8 850.9,374.0 851.8,374.2 852.7,374.4 853.6,374.5 854.5,374.6 855.5,374.9 856.4,375.2 857.3,375.5 858.2,375.7 859.1,375.8 860.0,376.1 861.0,376.3 861.9,376.4 862.8,376.5 863.7,376.8 864.6,377.1 865.5,377.3 866.5,377.5 867.4,377.9 868.3,378.2 869.2,378.4 870.1,378.7 871.0,379.0 872.0,379.3 872.9,379.5 873.8,379.8 874.7,380.1 875.6,380.4 876.5,380.6 877.4,380.8 878.4,381.2 879.3,381.5 880.2,381.5 881.1,381.9 882.0,382.2 882.9,382.3 883.9,382.4 884.8,382.7 885.7,383.0 886.6,383.1 887.5,383.3 888.4,383.6 889.4,384.0 890.3,384.2 891.2,384.5 892.1,384.8 893.0,385.0 893.9,385.3 894.9,385.4 895.8,385.6 896.7,385.7 897.6,385.8 898.5,386.1 899.4,386.4 900.4,386.7 901.3,386.9 902.2,387.1 903.1,387.1 904.0,387.3 904.9,387.7 905.8,387.9 906.8,388.0 907.7,388.1 908.6,388.4 909.5,388.6 910.4,388.7 911.3,388.8 912.3,389.0 913.2,389.1 914.1,389.4 915.0,389.7 915.9,389.8 916.8,390.1 917.8,390.3 918.7,390.6 919.6,390.9 920.5,391.2 921.4,391.4 922.3,391.7 923.3,391.9 924.2,392.2 925.1,392.6 926.0,392.9 926.9,393.1 927.8,393.5 928.8,393.7 929.7,393.8 930.6,394.0 931.5,394.0 932.4,394.3 933.3,394.5 934.2,394.8 935.2,395.1 936.1,395.3 937.0,395.5 937.9,395.7 938.8,395.9 939.7,396.1 940.7,396.3 941.6,396.6 942.5,396.8 943.4,397.1 944.3,397.2 945.2,397.5 946.2,397.6 947.1,397.8 948.0,398.1 948.9,398.2 949.8,398.4 950.7,398.5 951.7,398.8 952.6,399.1 953.5,399.4 954.4,399.7 955.3,400.1 956.2,400.3 957.2,400.7 958.1,400.9 959.0,401.2 959.9,401.6 960.8,401.9 961.7,402.2 962.6,402.3 963.6,402.5 964.5,402.6 965.4,403.0 966.3,403.3 967.2,403.5 968.1,403.6 969.1,403.8 970.0,404.0 970.9,404.2 971.8,404.5 972.7,404.7 973.6,404.9 974.6,405.1 975.5,405.4 976.4,405.7 977.3,405.9 978.2,406.3 979.1,406.5 980.1,406.9 981.0,407.2 981.9,407.6 982.8,407.9 983.7,408.0 984.6,408.2 985.5,408.7 986.5,408.9 987.4,409.2 988.3,409.5 989.2,409.7 990.1,409.9 991.0,410.2 992.0,410.5 992.9,410.6 993.8,410.8 994.7,411.0 995.6,411.3 996.5,411.6 997.5,411.8 998.4,412.0 999.3,412.3 1000.2,412.6 1001.1,412.8 1002.0,412.9 1003.0,413.1 1003.9,413.4 1004.8,413.7 1005.7,414.0 1006.6,414.2 1007.5,414.6 1008.5,414.8 1009.4,415.0 1010.3,415.3 1011.2,415.4 1012.1,415.7 1013.0,415.8 1013.9,416.0 1014.9,416.4 1015.8,416.6 1016.7,416.8 1017.6,417.1 1018.5,417.4 1019.4,417.7 1020.4,417.9 1021.3,418.1 1022.2,418.3 1023.1,418.3 1024.0,418.5 1024.9,418.7 1025.9,418.9 1026.8,419.2 1027.7,419.3 1028.6,419.4 1029.5,419.7 1030.0,419.7"/><polyline fill="none" stroke="#7A5195" stroke-width="3" points="96.0,181.3 96.9,182.0 97.8,182.0 98.7,182.5 99.7,182.8 100.6,183.2 101.5,183.7 102.4,184.0 103.3,184.2 104.2,181.5 105.2,178.8 106.1,175.7 107.0,176.1 107.9,176.4 108.8,176.9 109.7,177.2 110.7,177.7 111.6,178.3 112.5,178.8 113.4,179.0 114.3,179.4 115.2,179.9 116.2,180.2 117.1,180.9 118.0,177.9 118.9,178.1 119.8,175.4 120.7,175.8 121.7,176.2 122.6,176.7 123.5,177.0 124.4,177.4 125.3,177.7 126.2,178.2 127.1,178.9 128.1,176.0 129.0,176.3 129.9,176.6 130.8,176.8 131.7,177.2 132.6,177.4 133.6,177.7 134.5,178.1 135.4,178.5 136.3,178.8 137.2,179.5 138.1,179.9 139.1,180.2 140.0,180.6 140.9,181.0 141.8,181.6 142.7,182.3 143.6,182.9 144.6,183.5 145.5,184.1 146.4,184.6 147.3,184.9 148.2,185.2 149.1,185.6 150.1,186.0 151.0,186.3 151.9,186.5 152.8,186.5 153.7,187.1 154.6,187.7 155.5,188.0 156.5,185.0 157.4,185.0 158.3,185.5 159.2,185.8 160.1,186.3 161.0,183.6 162.0,184.0 162.9,184.3 163.8,184.8 164.7,182.1 165.6,182.4 166.5,183.1 167.5,183.4 168.4,184.0 169.3,184.5 170.2,185.2 171.1,185.7 172.0,186.0 173.0,183.4 173.9,183.7 174.8,184.1 175.7,184.5 176.6,184.8 177.5,185.2 178.5,185.7 179.4,182.9 180.3,183.2 181.2,183.6 182.1,184.1 183.0,184.6 183.9,181.9 184.9,182.5 185.8,182.8 186.7,179.8 187.6,180.1 188.5,180.2 189.4,180.7 190.4,181.2 191.3,181.8 192.2,182.1 193.1,182.6 194.0,183.0 194.9,183.5 195.9,184.0 196.8,184.6 197.7,184.9 198.6,185.4 199.5,186.0 200.4,186.1 201.4,186.5 202.3,186.8 203.2,187.3 204.1,187.9 205.0,184.9 205.9,185.2 206.9,185.7 207.8,186.2 208.7,186.7 209.6,187.3 210.5,187.7 211.4,188.2 212.3,188.7 213.3,189.3 214.2,189.6 215.1,190.1 216.0,190.7 216.9,191.3 217.8,188.5 218.8,188.9 219.7,189.4 220.6,189.9 221.5,190.2 222.4,190.9 223.3,191.0 224.3,191.7 225.2,192.3 226.1,192.5 227.0,193.0 227.9,190.0 228.8,190.4 229.8,190.7 230.7,191.3 231.6,191.8 232.5,192.2 233.4,192.8 234.3,193.4 235.2,193.6 236.2,194.2 237.1,194.6 238.0,195.1 238.9,195.7 239.8,196.0 240.7,196.2 241.7,196.9 242.6,197.4 243.5,197.7 244.4,198.4 245.3,198.5 246.2,199.0 247.2,199.6 248.1,200.1 249.0,200.8 249.9,201.1 250.8,201.3 251.7,202.0 252.7,202.4 253.6,202.7 254.5,203.1 255.4,203.7 256.3,204.2 257.2,204.7 258.2,205.2 259.1,205.3 260.0,202.6 260.9,202.9 261.8,199.9 262.7,200.4 263.6,201.0 264.6,201.3 265.5,201.5 266.4,202.0 267.3,202.5 268.2,203.1 269.1,203.5 270.1,203.9 271.0,204.4 271.9,204.9 272.8,202.1 273.7,202.3 274.6,202.6 275.6,203.1 276.5,203.6 277.4,203.9 278.3,204.2 279.2,204.7 280.1,205.2 281.1,202.2 282.0,199.3 282.9,199.8 283.8,200.5 284.7,200.6 285.6,201.0 286.6,201.5 287.5,201.9 288.4,202.4 289.3,202.8 290.2,203.3 291.1,203.8 292.0,204.3 293.0,204.2 293.9,204.7 294.8,205.3 295.7,199.1 296.6,199.6 297.5,200.1 298.5,200.6 299.4,201.3 300.3,202.0 301.2,202.5 302.1,202.9 303.0,203.6 304.0,204.0 304.9,204.3 305.8,204.7 306.7,205.3 307.6,199.3 308.5,199.8 309.5,200.3 310.4,200.8 311.3,200.9 312.2,201.4 313.1,201.8 314.0,201.9 315.0,202.4 315.9,202.8 316.8,203.3 317.7,203.9 318.6,204.3 319.5,204.8 320.4,205.2 321.4,205.5 322.3,206.1 323.2,206.4 324.1,206.6 325.0,207.3 325.9,207.8 326.9,208.0 327.8,208.6 328.7,209.0 329.6,209.6 330.5,210.3 331.4,211.0 332.4,211.4 333.3,211.9 334.2,212.5 335.1,212.9 336.0,213.5 336.9,214.0 337.9,214.4 338.8,214.6 339.7,215.2 340.6,215.4 341.5,215.5 342.4,215.3 343.4,215.9 344.3,216.3 345.2,216.7 346.1,217.0 347.0,217.3 347.9,217.3 348.8,217.8 349.8,218.1 350.7,218.6 351.6,218.9 352.5,219.3 353.4,219.7 354.3,220.2 355.3,220.6 356.2,221.2 357.1,221.7 358.0,222.2 358.9,222.6 359.8,222.9 360.8,223.4 361.7,223.9 362.6,224.4 363.5,224.8 364.4,225.1 365.3,225.7 366.3,226.3 367.2,226.6 368.1,227.2 369.0,227.9 369.9,228.5 370.8,228.8 371.8,229.4 372.7,230.0 373.6,227.2 374.5,227.8 375.4,228.0 376.3,228.5 377.2,228.8 378.2,226.0 379.1,226.0 380.0,226.5 380.9,227.2 381.8,227.6 382.7,228.2 383.7,228.3 384.6,228.8 385.5,229.3 386.4,229.7 387.3,230.3 388.2,230.6 389.2,231.2 390.1,231.8 391.0,232.1 391.9,232.2 392.8,232.8 393.7,233.5 394.7,234.0 395.6,230.8 396.5,231.3 397.4,231.5 398.3,231.9 399.2,232.5 400.2,232.8 401.1,232.9 402.0,233.6 402.9,234.0 403.8,234.6 404.7,235.1 405.6,235.4 406.6,235.7 407.5,235.9 408.4,235.9 409.3,236.2 410.2,236.6 411.1,237.0 412.1,237.6 413.0,238.1 413.9,238.4 414.8,239.0 415.7,239.6 416.6,240.1 417.6,240.6 418.5,241.0 419.4,238.0 420.3,238.7 421.2,239.3 422.1,239.8 423.1,240.3 424.0,240.7 424.9,241.2 425.8,241.5 426.7,242.0 427.6,242.5 428.6,242.5 429.5,243.2 430.4,243.6 431.3,240.9 432.2,241.0 433.1,241.6 434.0,242.0 435.0,242.6 435.9,243.2 436.8,243.2 437.7,243.4 438.6,243.9 439.5,244.2 440.5,244.7 441.4,245.1 442.3,245.6 443.2,246.0 444.1,246.6 445.0,246.7 446.0,247.0 446.9,247.3 447.8,248.0 448.7,247.9 449.6,248.5 450.5,248.5 451.5,248.7 452.4,249.2 453.3,249.6 454.2,250.4 455.1,250.9 456.0,251.5 457.0,251.7 457.9,252.1 458.8,252.6 459.7,252.6 460.6,252.7 461.5,252.8 462.4,250.1 463.4,250.8 464.3,251.4 465.2,252.0 466.1,252.5 467.0,253.0 467.9,253.2 468.9,253.4 469.8,253.8 470.7,254.1 471.6,254.6 472.5,255.3 473.4,255.6 474.4,256.1 475.3,256.5 476.2,256.7 477.1,257.2 478.0,257.8 478.9,258.5 479.9,255.6 480.8,256.1 481.7,256.3 482.6,253.5 483.5,250.5 484.4,251.1 485.3,251.6 486.3,252.0 487.2,252.0 488.1,252.4 489.0,252.3 489.9,252.8 490.8,253.3 491.8,253.6 492.7,253.9 493.6,254.4 494.5,255.0 495.4,255.6 496.3,256.0 497.3,256.6 498.2,257.1 499.1,257.4 500.0,257.3 500.9,257.6 501.8,258.1 502.8,258.3 503.7,258.7 504.6,259.1 505.5,259.4 506.4,259.5 507.3,260.0 508.3,260.5 509.2,261.0 510.1,261.5 511.0,261.7 511.9,262.3 512.8,262.6 513.7,263.2 514.7,263.5 515.6,263.5 516.5,263.8 517.4,264.3 518.3,261.3 519.2,261.8 520.2,262.2 521.1,262.9 522.0,263.4 522.9,263.8 523.8,264.4 524.7,264.9 525.7,265.4 526.6,266.0 527.5,266.4 528.4,267.0 529.3,267.4 530.2,267.7 531.2,268.2 532.1,268.7 533.0,269.3 533.9,269.8 534.8,269.5 535.7,270.0 536.7,270.3 537.6,270.8 538.5,271.3 539.4,271.6 540.3,272.1 541.2,272.6 542.1,273.0 543.1,273.5 544.0,273.8 544.9,270.8 545.8,271.1 546.7,271.5 547.6,271.8 548.6,272.2 549.5,272.7 550.4,273.0 551.3,273.3 552.2,273.7 553.1,274.0 554.1,274.5 555.0,275.0 555.9,275.5 556.8,275.9 557.7,276.7 558.6,276.6 559.6,277.1 560.5,277.4 561.4,277.8 562.3,278.4 563.2,278.9 564.1,279.2 565.1,279.8 566.0,280.1 566.9,280.4 567.8,280.6 568.7,281.0 569.6,281.5 570.5,281.7 571.5,282.4 572.4,282.8 573.3,283.0 574.2,283.2 575.1,283.6 576.0,280.8 577.0,281.2 577.9,281.7 578.8,282.1 579.7,282.8 580.6,283.2 581.5,283.6 582.5,283.9 583.4,284.2 584.3,284.4 585.2,285.0 586.1,285.3 587.0,285.8 588.0,286.1 588.9,286.6 589.8,287.1 590.7,287.5 591.6,287.9 592.5,288.4 593.5,288.7 594.4,289.0 595.3,289.6 596.2,290.1 597.1,290.4 598.0,290.7 598.9,291.2 599.9,291.6 600.8,292.2 601.7,292.7 602.6,293.2 603.5,293.6 604.4,294.2 605.4,294.8 606.3,295.4 607.2,295.7 608.1,295.9 609.0,296.6 609.9,297.2 610.9,297.5 611.8,297.9 612.7,298.2 613.6,298.8 614.5,299.2 615.4,299.8 616.4,296.6 617.3,293.9 618.2,294.3 619.1,294.8 620.0,295.1 620.9,295.6 621.9,296.2 622.8,296.4 623.7,296.6 624.6,297.1 625.5,297.7 626.4,298.1 627.3,298.7 628.3,299.2 629.2,299.2 630.1,299.8 631.0,300.4 631.9,300.9 632.8,301.3 633.8,301.8 634.7,302.4 635.6,303.1 636.5,303.7 637.4,304.2 638.3,304.8 639.3,305.3 640.2,305.8 641.1,306.2 642.0,306.6 642.9,307.2 643.8,307.8 644.8,308.2 645.7,308.7 646.6,309.2 647.5,309.8 648.4,310.1 649.3,310.4 650.3,311.0 651.2,311.4 652.1,311.7 653.0,312.2 653.9,312.8 654.8,313.3 655.7,310.5 656.7,310.8 657.6,311.1 658.5,311.6 659.4,312.2 660.3,312.8 661.2,313.5 662.2,314.0 663.1,314.5 664.0,315.2 664.9,315.4 665.8,315.7 666.7,316.4 667.7,316.8 668.6,317.4 669.5,317.9 670.4,318.5 671.3,319.1 672.2,319.6 673.2,320.1 674.1,320.5 675.0,321.2 675.9,321.5 676.8,322.1 677.7,322.4 678.7,322.8 679.6,323.5 680.5,323.9 681.4,324.6 682.3,325.2 683.2,322.3 684.1,322.7 685.1,323.3 686.0,323.7 686.9,324.2 687.8,324.4 688.7,324.9 689.6,325.4 690.6,325.8 691.5,326.3 692.4,327.0 693.3,327.4 694.2,327.9 695.1,328.4 696.1,328.9 697.0,329.0 697.9,329.3 698.8,329.9 699.7,327.2 700.6,327.6 701.6,328.1 702.5,328.5 703.4,328.9 704.3,329.2 705.2,329.6 706.1,330.1 707.1,330.7 708.0,331.2 708.9,331.7 709.8,332.3 710.7,332.8 711.6,333.3 712.5,333.9 713.5,334.2 714.4,334.6 715.3,335.2 716.2,335.8 717.1,336.4 718.0,336.6 719.0,337.1 719.9,337.6 720.8,338.0 721.7,338.4 722.6,339.0 723.5,339.4 724.5,336.2 725.4,336.2 726.3,336.8 727.2,337.3 728.1,338.0 729.0,335.3 730.0,336.0 730.9,336.6 731.8,337.2 732.7,337.5 733.6,337.7 734.5,338.0 735.4,338.6 736.4,339.2 737.3,339.4 738.2,340.0 739.1,340.3 740.0,340.9 740.9,341.1 741.9,341.6 742.8,341.9 743.7,342.3 744.6,342.8 745.5,343.3 746.4,343.9 747.4,344.4 748.3,344.7 749.2,341.8 750.1,342.1 751.0,342.7 751.9,342.9 752.9,343.2 753.8,343.8 754.7,343.9 755.6,344.5 756.5,345.2 757.4,345.2 758.4,342.2 759.3,342.4 760.2,342.8 761.1,343.4 762.0,343.7 762.9,344.3 763.8,345.0 764.8,345.2 765.7,345.8 766.6,346.3 767.5,346.5 768.4,347.1 769.3,347.6 770.3,348.0 771.2,348.5 772.1,349.1 773.0,349.6 773.9,350.0 774.8,350.4 775.8,350.5 776.7,344.3 777.6,344.7 778.5,344.7 779.4,345.1 780.3,345.5 781.3,346.0 782.2,346.7 783.1,347.3 784.0,347.8 784.9,348.4 785.8,348.4 786.8,349.0 787.7,349.6 788.6,349.5 789.5,350.1 790.4,350.5 791.3,350.9 792.2,351.2 793.2,351.6 794.1,352.0 795.0,352.0 795.9,349.0 796.8,349.5 797.7,350.0 798.7,350.7 799.6,351.3 800.5,351.8 801.4,352.2 802.3,352.7 803.2,352.8 804.2,350.0 805.1,350.3 806.0,350.6 806.9,350.9 807.8,351.3 808.7,351.6 809.7,352.1 810.6,352.5 811.5,352.6 812.4,353.2 813.3,353.6 814.2,353.9 815.2,354.4 816.1,355.1 817.0,355.6 817.9,356.1 818.8,356.5 819.7,356.9 820.6,357.2 821.6,357.8 822.5,358.0 823.4,358.5 824.3,359.2 825.2,359.4 826.1,359.9 827.1,360.2 828.0,360.8 828.9,361.4 829.8,361.8 830.7,362.3 831.6,362.6 832.6,363.1 833.5,363.4 834.4,363.7 835.3,364.2 836.2,364.8 837.1,365.0 838.1,365.4 839.0,366.0 839.9,366.7 840.8,367.2 841.7,367.6 842.6,368.1 843.6,368.7 844.5,369.3 845.4,369.6 846.3,370.1 847.2,370.7 848.1,371.0 849.0,371.6 850.0,372.2 850.9,372.8 851.8,373.3 852.7,373.9 853.6,374.4 854.5,374.8 855.5,375.1 856.4,375.8 857.3,376.1 858.2,373.1 859.1,373.5 860.0,373.7 861.0,373.8 861.9,374.3 862.8,375.0 863.7,375.0 864.6,375.3 865.5,375.8 866.5,376.3 867.4,376.6 868.3,373.5 869.2,374.0 870.1,374.4 871.0,375.0 872.0,375.4 872.9,375.9 873.8,376.5 874.7,376.8 875.6,377.2 876.5,373.9 877.4,374.2 878.4,374.8 879.3,375.4 880.2,375.9 881.1,376.3 882.0,376.7 882.9,377.4 883.9,378.0 884.8,378.6 885.7,378.9 886.6,379.5 887.5,379.9 888.4,380.0 889.4,380.5 890.3,380.7 891.2,381.2 892.1,381.2 893.0,381.8 893.9,382.3 894.9,379.6 895.8,380.2 896.7,380.9 897.6,381.2 898.5,381.7 899.4,382.3 900.4,382.9 901.3,383.5 902.2,383.8 903.1,384.2 904.0,384.5 904.9,384.5 905.8,384.9 906.8,385.1 907.7,385.5 908.6,386.0 909.5,386.2 910.4,386.6 911.3,387.1 912.3,387.4 913.2,387.9 914.1,388.2 915.0,388.7 915.9,389.3 916.8,389.8 917.8,387.1 918.7,384.0 919.6,384.1 920.5,384.3 921.4,384.9 922.3,385.6 923.3,386.2 924.2,386.8 925.1,387.1 926.0,387.5 926.9,388.1 927.8,388.6 928.8,389.1 929.7,389.2 930.6,389.8 931.5,390.3 932.4,390.8 933.3,391.4 934.2,392.0 935.2,392.5 936.1,393.1 937.0,393.6 937.9,394.0 938.8,394.3 939.7,394.7 940.7,395.2 941.6,395.8 942.5,396.4 943.4,397.0 944.3,397.6 945.2,397.9 946.2,398.3 947.1,398.8 948.0,399.4 948.9,396.3 949.8,396.8 950.7,397.1 951.7,397.6 952.6,398.0 953.5,398.5 954.4,398.7 955.3,396.0 956.2,396.2 957.2,396.7 958.1,397.2 959.0,397.8 959.9,395.2 960.8,395.9 961.7,392.8 962.6,393.1 963.6,393.8 964.5,394.2 965.4,394.4 966.3,395.0 967.2,395.5 968.1,396.2 969.1,396.8 970.0,397.4 970.9,397.8 971.8,398.3 972.7,398.6 973.6,399.1 974.6,399.5 975.5,400.1 976.4,400.6 977.3,401.2 978.2,401.7 979.1,401.9 980.1,402.3 981.0,402.6 981.9,399.7 982.8,399.9 983.7,400.3 984.6,400.7 985.5,401.3 986.5,401.9 987.4,402.3 988.3,402.7 989.2,403.1 990.1,403.8 991.0,404.3 992.0,404.7 992.9,405.4 993.8,402.1 994.7,402.6 995.6,402.8 996.5,403.3 997.5,403.7 998.4,404.3 999.3,404.8 1000.2,405.2 1001.1,405.5 1002.0,405.9 1003.0,403.1 1003.9,403.4 1004.8,404.0 1005.7,404.5 1006.6,405.1 1007.5,405.5 1008.5,405.9 1009.4,406.5 1010.3,407.1 1011.2,407.4 1012.1,407.9 1013.0,408.4 1013.9,409.0 1014.9,409.6 1015.8,410.0 1016.7,410.7 1017.6,411.0 1018.5,411.4 1019.4,411.5 1020.4,412.1 1021.3,412.6 1022.2,413.1 1023.1,413.5 1024.0,413.7 1024.9,413.6 1025.9,413.9 1026.8,411.2 1027.7,411.4 1028.6,412.0 1029.5,412.3 1030.0,412.5"/><polyline fill="none" stroke="#E45756" stroke-width="3" points="96.0,181.3 96.9,181.9 97.8,182.3 98.7,182.4 99.7,182.5 100.6,182.7 101.5,183.1 102.4,183.2 103.3,183.5 104.2,182.9 105.2,183.2 106.1,146.9 107.0,147.3 107.9,147.5 108.8,148.0 109.7,148.1 110.7,148.4 111.6,148.7 112.5,149.2 113.4,149.6 114.3,150.0 115.2,150.5 116.2,150.9 117.1,151.1 118.0,151.6 118.9,151.1 119.8,151.4 120.7,151.1 121.7,151.6 122.6,151.9 123.5,152.2 124.4,152.8 125.3,153.0 126.2,153.5 127.1,153.9 128.1,154.5 129.0,154.9 129.9,155.4 130.8,155.6 131.7,156.1 132.6,156.4 133.6,156.8 134.5,157.3 135.4,157.7 136.3,157.9 137.2,158.3 138.1,158.7 139.1,159.0 140.0,159.1 140.9,159.2 141.8,159.5 142.7,159.9 143.6,160.4 144.6,161.0 145.5,161.2 146.4,161.5 147.3,161.9 148.2,162.2 149.1,161.9 150.1,162.3 151.0,162.6 151.9,162.9 152.8,163.0 153.7,163.5 154.6,163.9 155.5,164.3 156.5,164.9 157.4,164.7 158.3,165.1 159.2,165.3 160.1,165.7 161.0,166.2 162.0,166.8 162.9,167.2 163.8,167.6 164.7,168.0 165.6,168.4 166.5,168.9 167.5,169.4 168.4,169.6 169.3,170.1 170.2,170.3 171.1,170.6 172.0,170.8 173.0,171.2 173.9,171.5 174.8,171.6 175.7,172.1 176.6,172.5 177.5,173.0 178.5,173.2 179.4,173.7 180.3,173.9 181.2,174.4 182.1,174.0 183.0,174.4 183.9,174.9 184.9,175.4 185.8,175.9 186.7,176.4 187.6,176.8 188.5,177.4 189.4,177.7 190.4,178.2 191.3,178.6 192.2,178.8 193.1,179.2 194.0,179.5 194.9,179.7 195.9,180.2 196.8,180.6 197.7,180.3 198.6,180.5 199.5,181.0 200.4,181.4 201.4,181.7 202.3,181.7 203.2,182.1 204.1,182.6 205.0,182.8 205.9,183.3 206.9,183.8 207.8,184.1 208.7,184.6 209.6,185.1 210.5,185.2 211.4,185.3 212.3,185.6 213.3,186.1 214.2,186.6 215.1,186.2 216.0,186.5 216.9,186.8 217.8,187.2 218.8,187.5 219.7,187.7 220.6,188.1 221.5,188.6 222.4,188.9 223.3,189.4 224.3,189.6 225.2,190.2 226.1,190.7 227.0,191.1 227.9,191.4 228.8,191.2 229.8,191.4 230.7,191.7 231.6,192.1 232.5,192.3 233.4,192.8 234.3,193.3 235.2,193.6 236.2,193.9 237.1,194.5 238.0,195.0 238.9,195.5 239.8,196.0 240.7,196.3 241.7,196.7 242.6,197.0 243.5,196.1 244.4,196.6 245.3,196.9 246.2,197.3 247.2,197.6 248.1,198.1 249.0,198.6 249.9,199.1 250.8,199.5 251.7,200.0 252.7,200.2 253.6,200.6 254.5,200.1 255.4,200.3 256.3,200.7 257.2,201.1 258.2,201.7 259.1,202.1 260.0,202.3 260.9,202.5 261.8,202.1 262.7,202.4 263.6,202.9 264.6,203.4 265.5,203.8 266.4,204.3 267.3,204.6 268.2,204.9 269.1,205.2 270.1,205.5 271.0,205.9 271.9,206.4 272.8,206.7 273.7,207.0 274.6,207.6 275.6,208.0 276.5,208.2 277.4,208.7 278.3,209.1 279.2,209.5 280.1,209.7 281.1,210.0 282.0,210.4 282.9,210.8 283.8,211.3 284.7,211.5 285.6,211.8 286.6,212.3 287.5,212.6 288.4,213.2 289.3,213.5 290.2,214.0 291.1,214.6 292.0,214.9 293.0,215.1 293.9,215.5 294.8,215.9 295.7,216.3 296.6,215.6 297.5,216.1 298.5,216.6 299.4,217.0 300.3,217.5 301.2,218.0 302.1,218.0 303.0,218.5 304.0,218.7 304.9,219.0 305.8,219.3 306.7,219.4 307.6,219.6 308.5,220.0 309.5,219.5 310.4,219.8 311.3,220.2 312.2,220.7 313.1,221.2 314.0,221.6 315.0,221.6 315.9,222.0 316.8,222.3 317.7,222.6 318.6,223.1 319.5,223.5 320.4,224.1 321.4,224.6 322.3,224.3 323.2,224.6 324.1,225.1 325.0,225.4 325.9,225.6 326.9,226.1 327.8,226.1 328.7,226.6 329.6,226.3 330.5,226.7 331.4,227.2 332.4,227.6 333.3,228.1 334.2,228.3 335.1,228.5 336.0,228.9 336.9,229.4 337.9,229.9 338.8,230.3 339.7,230.8 340.6,231.1 341.5,194.8 342.4,194.4 343.4,194.7 344.3,195.1 345.2,195.6 346.1,195.9 347.0,196.5 347.9,196.9 348.8,197.3 349.8,197.9 350.7,198.3 351.6,198.7 352.5,198.9 353.4,199.5 354.3,199.7 355.3,200.2 356.2,200.7 357.1,201.3 358.0,201.5 358.9,201.1 359.8,201.1 360.8,201.6 361.7,201.7 362.6,201.8 363.5,202.3 364.4,202.6 365.3,203.1 366.3,203.6 367.2,204.2 368.1,204.7 369.0,205.2 369.9,205.7 370.8,206.3 371.8,206.3 372.7,206.9 373.6,207.4 374.5,207.8 375.4,208.3 376.3,208.8 377.2,209.3 378.2,209.5 379.1,209.9 380.0,210.1 380.9,210.6 381.8,211.1 382.7,211.5 383.7,212.0 384.6,212.0 385.5,212.5 386.4,212.9 387.3,213.2 388.2,213.8 389.2,214.3 390.1,214.8 391.0,215.1 391.9,214.7 392.8,215.2 393.7,214.7 394.7,215.1 395.6,215.5 396.5,215.5 397.4,215.9 398.3,216.3 399.2,216.5 400.2,216.9 401.1,217.0 402.0,217.4 402.9,217.6 403.8,217.7 404.7,218.2 405.6,218.7 406.6,219.0 407.5,219.6 408.4,218.4 409.3,218.7 410.2,219.3 411.1,219.3 412.1,219.8 413.0,220.1 413.9,220.3 414.8,220.7 415.7,221.2 416.6,221.6 417.6,221.3 418.5,221.7 419.4,222.2 420.3,222.7 421.2,222.4 422.1,222.5 423.1,222.8 424.0,223.1 424.9,223.3 425.8,223.8 426.7,223.4 427.6,223.6 428.6,223.9 429.5,224.0 430.4,187.7 431.3,188.3 432.2,188.5 433.1,188.2 434.0,188.5 435.0,188.9 435.9,189.3 436.8,189.4 437.7,189.6 438.6,189.7 439.5,190.0 440.5,190.6 441.4,191.0 442.3,191.3 443.2,191.7 444.1,192.0 445.0,192.2 446.0,192.6 446.9,192.8 447.8,193.2 448.7,193.6 449.6,193.8 450.5,194.1 451.5,194.5 452.4,194.9 453.3,195.5 454.2,195.9 455.1,196.2 456.0,196.6 457.0,196.9 457.9,197.2 458.8,197.7 459.7,198.2 460.6,198.4 461.5,198.6 462.4,199.1 463.4,199.5 464.3,199.6 465.2,199.9 466.1,200.4 467.0,200.7 467.9,200.4 468.9,200.9 469.8,201.4 470.7,201.6 471.6,202.0 472.5,202.4 473.4,203.0 474.4,203.2 475.3,203.5 476.2,204.0 477.1,204.3 478.0,204.6 478.9,205.0 479.9,205.1 480.8,204.1 481.7,204.4 482.6,205.0 483.5,205.5 484.4,205.8 485.3,206.0 486.3,206.3 487.2,206.8 488.1,207.0 489.0,207.3 489.9,207.0 490.8,206.7 491.8,207.1 492.7,207.5 493.6,208.0 494.5,208.3 495.4,208.8 496.3,209.2 497.3,208.7 498.2,209.1 499.1,209.5 500.0,209.9 500.9,210.3 501.8,210.7 502.8,210.2 503.7,210.5 504.6,211.0 505.5,211.4 506.4,211.8 507.3,212.3 508.3,212.6 509.2,212.7 510.1,213.0 511.0,213.5 511.9,213.9 512.8,213.9 513.7,214.3 514.7,214.8 515.6,215.2 516.5,215.8 517.4,216.0 518.3,215.7 519.2,216.2 520.2,216.4 521.1,216.8 522.0,217.1 522.9,217.7 523.8,218.1 524.7,218.3 525.7,218.7 526.6,218.6 527.5,219.1 528.4,219.4 529.3,219.9 530.2,220.3 531.2,220.3 532.1,220.5 533.0,220.9 533.9,221.4 534.8,221.6 535.7,221.8 536.7,222.1 537.6,222.5 538.5,223.0 539.4,223.5 540.3,224.1 541.2,224.5 542.1,224.3 543.1,224.6 544.0,225.0 544.9,225.6 545.8,226.1 546.7,225.8 547.6,226.2 548.6,226.7 549.5,227.0 550.4,227.2 551.3,227.5 552.2,227.3 553.1,227.7 554.1,228.0 555.0,228.5 555.9,228.7 556.8,229.2 557.7,229.7 558.6,230.2 559.6,230.8 560.5,231.0 561.4,231.1 562.3,231.5 563.2,231.9 564.1,232.3 565.1,232.5 566.0,232.7 566.9,233.1 567.8,233.7 568.7,233.8 569.6,233.3 570.5,233.2 571.5,233.4 572.4,233.9 573.3,234.1 574.2,234.2 575.1,233.9 576.0,234.3 577.0,234.8 577.9,235.0 578.8,235.1 579.7,235.3 580.6,235.6 581.5,236.0 582.5,236.0 583.4,236.5 584.3,236.7 585.2,237.1 586.1,237.4 587.0,237.9 588.0,238.4 588.9,238.8 589.8,239.1 590.7,239.2 591.6,239.8 592.5,240.3 593.5,240.9 594.4,241.2 595.3,241.6 596.2,242.1 597.1,242.6 598.0,242.9 598.9,243.4 599.9,243.7 600.8,244.0 601.7,244.5 602.6,244.9 603.5,245.2 604.4,245.7 605.4,245.9 606.3,246.2 607.2,246.4 608.1,246.8 609.0,246.7 609.9,210.5 610.9,210.8 611.8,211.2 612.7,211.2 613.6,211.5 614.5,212.0 615.4,212.5 616.4,212.8 617.3,212.8 618.2,213.3 619.1,212.9 620.0,213.0 620.9,213.5 621.9,213.9 622.8,214.4 623.7,214.3 624.6,214.6 625.5,215.0 626.4,215.5 627.3,215.7 628.3,216.2 629.2,216.7 630.1,217.1 631.0,216.9 631.9,217.4 632.8,217.8 633.8,218.3 634.7,218.6 635.6,219.0 636.5,219.2 637.4,219.5 638.3,220.0 639.3,220.4 640.2,220.7 641.1,220.2 642.0,220.8 642.9,221.3 643.8,221.7 644.8,222.0 645.7,222.3 646.6,222.6 647.5,223.1 648.4,223.6 649.3,223.9 650.3,224.1 651.2,224.4 652.1,224.8 653.0,225.0 653.9,225.5 654.8,225.9 655.7,226.2 656.7,226.7 657.6,227.0 658.5,227.4 659.4,227.8 660.3,228.1 661.2,228.6 662.2,229.1 663.1,229.6 664.0,229.8 664.9,230.3 665.8,230.9 666.7,231.3 667.7,231.5 668.6,232.0 669.5,232.5 670.4,232.7 671.3,233.1 672.2,233.6 673.2,234.0 674.1,234.6 675.0,234.9 675.9,235.4 676.8,235.8 677.7,235.9 678.7,236.5 679.6,236.7 680.5,237.2 681.4,237.6 682.3,237.9 683.2,238.3 684.1,238.6 685.1,239.0 686.0,239.4 686.9,239.7 687.8,240.0 688.7,240.5 689.6,240.9 690.6,240.9 691.5,240.4 692.4,240.8 693.3,241.3 694.2,241.7 695.1,242.0 696.1,242.4 697.0,242.8 697.9,242.4 698.8,242.9 699.7,242.5 700.6,243.0 701.6,243.4 702.5,243.7 703.4,244.1 704.3,244.2 705.2,244.7 706.1,245.1 707.1,245.3 708.0,245.7 708.9,246.1 709.8,246.6 710.7,247.0 711.6,247.3 712.5,247.8 713.5,248.4 714.4,248.7 715.3,249.2 716.2,249.6 717.1,249.9 718.0,249.5 719.0,249.9 719.9,250.4 720.8,250.8 721.7,251.2 722.6,251.5 723.5,251.7 724.5,251.5 725.4,251.8 726.3,252.2 727.2,252.7 728.1,253.0 729.0,253.3 730.0,253.2 730.9,253.7 731.8,253.9 732.7,254.1 733.6,254.3 734.5,254.6 735.4,254.7 736.4,255.2 737.3,255.7 738.2,255.8 739.1,256.3 740.0,256.6 740.9,257.1 741.9,257.7 742.8,258.1 743.7,258.5 744.6,258.6 745.5,259.0 746.4,259.5 747.4,259.3 748.3,259.3 749.2,259.6 750.1,259.8 751.0,258.3 751.9,258.7 752.9,259.1 753.8,259.6 754.7,260.0 755.6,260.2 756.5,260.4 757.4,260.8 758.4,261.2 759.3,261.7 760.2,262.1 761.1,262.5 762.0,262.9 762.9,262.1 763.8,262.7 764.8,262.7 765.7,263.1 766.6,263.4 767.5,263.9 768.4,264.4 769.3,265.0 770.3,265.1 771.2,265.5 772.1,265.8 773.0,266.3 773.9,266.8 774.8,267.3 775.8,267.5 776.7,268.0 777.6,268.5 778.5,268.9 779.4,269.3 780.3,269.8 781.3,270.0 782.2,269.7 783.1,270.0 784.0,270.6 784.9,271.1 785.8,271.6 786.8,271.3 787.7,271.6 788.6,272.1 789.5,272.4 790.4,272.8 791.3,273.4 792.2,273.6 793.2,273.8 794.1,274.2 795.0,274.9 795.9,275.3 796.8,275.6 797.7,275.8 798.7,276.4 799.6,276.4 800.5,276.9 801.4,277.1 802.3,277.6 803.2,277.9 804.2,278.2 805.1,278.7 806.0,279.3 806.9,279.6 807.8,279.4 808.7,279.5 809.7,279.8 810.6,279.4 811.5,279.8 812.4,279.9 813.3,280.3 814.2,280.3 815.2,280.1 816.1,280.3 817.0,280.7 817.9,281.1 818.8,281.5 819.7,282.1 820.6,282.5 821.6,282.8 822.5,282.9 823.4,282.8 824.3,283.0 825.2,283.2 826.1,283.7 827.1,283.8 828.0,284.1 828.9,284.4 829.8,284.9 830.7,285.4 831.6,285.0 832.6,285.3 833.5,285.6 834.4,286.0 835.3,286.4 836.2,286.8 837.1,287.2 838.1,287.7 839.0,288.0 839.9,288.4 840.8,288.8 841.7,289.1 842.6,289.4 843.6,289.6 844.5,289.3 845.4,289.6 846.3,290.0 847.2,290.2 848.1,290.7 849.0,290.7 850.0,291.0 850.9,291.4 851.8,291.2 852.7,291.7 853.6,291.9 854.5,292.3 855.5,292.6 856.4,292.6 857.3,293.1 858.2,292.6 859.1,293.0 860.0,293.5 861.0,293.8 861.9,294.3 862.8,294.9 863.7,295.1 864.6,295.6 865.5,295.8 866.5,296.3 867.4,296.7 868.3,296.9 869.2,297.2 870.1,297.5 871.0,297.8 872.0,297.9 872.9,298.1 873.8,298.5 874.7,299.0 875.6,299.0 876.5,299.1 877.4,299.6 878.4,300.0 879.3,300.3 880.2,300.6 881.1,301.1 882.0,301.5 882.9,301.3 883.9,301.7 884.8,302.3 885.7,302.6 886.6,302.8 887.5,302.9 888.4,303.5 889.4,303.0 890.3,303.1 891.2,302.2 892.1,302.7 893.0,303.3 893.9,303.8 894.9,304.3 895.8,304.7 896.7,305.0 897.6,305.6 898.5,305.8 899.4,306.3 900.4,306.6 901.3,307.2 902.2,307.7 903.1,308.1 904.0,308.5 904.9,309.0 905.8,309.3 906.8,309.7 907.7,310.1 908.6,310.5 909.5,311.0 910.4,311.4 911.3,311.9 912.3,312.1 913.2,312.2 914.1,312.7 915.0,312.9 915.9,312.8 916.8,313.1 917.8,313.4 918.7,313.6 919.6,313.9 920.5,314.5 921.4,314.7 922.3,314.9 923.3,315.3 924.2,315.3 925.1,315.7 926.0,315.8 926.9,316.0 927.8,316.4 928.8,316.7 929.7,317.2 930.6,317.7 931.5,318.2 932.4,318.5 933.3,319.0 934.2,319.3 935.2,319.4 936.1,319.6 937.0,320.1 937.9,320.4 938.8,320.7 939.7,321.3 940.7,321.9 941.6,321.9 942.5,322.4 943.4,322.9 944.3,323.1 945.2,323.7 946.2,324.0 947.1,324.5 948.0,324.8 948.9,325.0 949.8,325.3 950.7,325.8 951.7,326.1 952.6,326.6 953.5,327.0 954.4,327.5 955.3,327.4 956.2,327.9 957.2,328.0 958.1,327.8 959.0,328.3 959.9,328.4 960.8,328.9 961.7,329.0 962.6,329.3 963.6,329.8 964.5,330.1 965.4,330.4 966.3,330.9 967.2,331.4 968.1,331.8 969.1,332.2 970.0,332.5 970.9,332.3 971.8,332.6 972.7,332.7 973.6,333.0 974.6,333.1 975.5,333.5 976.4,333.5 977.3,333.8 978.2,334.1 979.1,334.7 980.1,335.0 981.0,335.2 981.9,335.6 982.8,336.1 983.7,335.4 984.6,335.7 985.5,336.2 986.5,336.4 987.4,336.9 988.3,337.0 989.2,337.5 990.1,337.9 991.0,338.2 992.0,338.3 992.9,338.9 993.8,339.3 994.7,339.6 995.6,339.9 996.5,340.4 997.5,340.8 998.4,341.0 999.3,341.4 1000.2,341.9 1001.1,342.2 1002.0,342.8 1003.0,343.1 1003.9,343.6 1004.8,343.9 1005.7,344.2 1006.6,344.8 1007.5,345.3 1008.5,345.7 1009.4,346.2 1010.3,346.1 1011.2,345.8 1012.1,346.1 1013.0,346.4 1013.9,346.6 1014.9,347.1 1015.8,347.6 1016.7,347.7 1017.6,348.3 1018.5,348.7 1019.4,349.2 1020.4,349.7 1021.3,350.1 1022.2,350.5 1023.1,350.9 1024.0,351.3 1024.9,351.7 1025.9,352.2 1026.8,352.6 1027.7,353.1 1028.6,353.4 1029.5,353.7 1030.0,354.0"/><polyline fill="none" stroke="#1F9D8A" stroke-width="3" points="96.0,181.3 96.9,181.7 97.8,181.8 98.7,182.2 99.7,182.7 100.6,183.1 101.5,183.7 102.4,182.8 103.3,183.3 104.2,183.7 105.2,184.2 106.1,184.6 107.0,184.8 107.9,185.3 108.8,185.9 109.7,186.4 110.7,186.6 111.6,186.7 112.5,187.1 113.4,186.0 114.3,186.5 115.2,186.8 116.2,187.4 117.1,187.6 118.0,187.6 118.9,187.8 119.8,188.4 120.7,188.9 121.7,189.3 122.6,189.8 123.5,190.3 124.4,189.0 125.3,189.2 126.2,189.7 127.1,190.2 128.1,190.6 129.0,191.0 129.9,191.4 130.8,192.1 131.7,191.1 132.6,191.6 133.6,192.1 134.5,192.6 135.4,193.0 136.3,193.6 137.2,194.0 138.1,193.6 139.1,194.0 140.0,194.6 140.9,194.9 141.8,195.4 142.7,196.0 143.6,196.4 144.6,196.8 145.5,197.2 146.4,197.8 147.3,198.0 148.2,198.4 149.1,198.9 150.1,199.0 151.0,199.3 151.9,199.4 152.8,200.0 153.7,200.5 154.6,200.9 155.5,201.4 156.5,202.0 157.4,202.3 158.3,202.8 159.2,202.9 160.1,202.1 161.0,202.3 162.0,202.8 162.9,203.3 163.8,203.9 164.7,204.1 165.6,204.5 166.5,205.0 167.5,205.3 168.4,205.7 169.3,206.3 170.2,206.6 171.1,206.7 172.0,207.1 173.0,207.3 173.9,206.0 174.8,206.5 175.7,207.1 176.6,206.2 177.5,206.6 178.5,206.9 179.4,205.9 180.3,206.5 181.2,206.9 182.1,207.3 183.0,207.6 183.9,208.2 184.9,208.5 185.8,209.1 186.7,209.3 187.6,209.8 188.5,210.4 189.4,210.9 190.4,211.5 191.3,212.0 192.2,212.6 193.1,213.1 194.0,213.4 194.9,214.0 195.9,214.3 196.8,214.9 197.7,215.4 198.6,214.3 199.5,214.8 200.4,215.4 201.4,215.9 202.3,216.3 203.2,216.7 204.1,217.3 205.0,217.9 205.9,218.2 206.9,218.2 207.8,218.3 208.7,218.9 209.6,219.3 210.5,219.8 211.4,220.1 212.3,220.5 213.3,221.2 214.2,221.7 215.1,222.2 216.0,222.6 216.9,223.1 217.8,223.5 218.8,224.1 219.7,224.5 220.6,224.9 221.5,225.5 222.4,226.0 223.3,226.5 224.3,226.9 225.2,227.4 226.1,227.6 227.0,228.2 227.9,228.4 228.8,229.1 229.8,229.5 230.7,226.5 231.6,227.0 232.5,226.1 233.4,226.6 234.3,227.2 235.2,227.4 236.2,227.9 237.1,228.3 238.0,228.9 238.9,229.5 239.8,230.0 240.7,230.5 241.7,230.4 242.6,230.9 243.5,231.3 244.4,231.3 245.3,231.9 246.2,232.1 247.2,232.4 248.1,232.5 249.0,233.1 249.9,233.4 250.8,233.9 251.7,234.4 252.7,234.8 253.6,235.0 254.5,235.2 255.4,235.8 256.3,236.2 257.2,236.7 258.2,237.3 259.1,237.7 260.0,238.2 260.9,238.9 261.8,239.2 262.7,239.7 263.6,240.4 264.6,240.6 265.5,241.1 266.4,241.6 267.3,242.3 268.2,242.5 269.1,243.0 270.1,243.3 271.0,243.9 271.9,244.5 272.8,245.0 273.7,245.6 274.6,245.9 275.6,246.5 276.5,247.0 277.4,247.1 278.3,247.7 279.2,248.3 280.1,248.8 281.1,247.8 282.0,248.3 282.9,248.6 283.8,248.9 284.7,249.2 285.6,249.6 286.6,250.1 287.5,250.5 288.4,251.1 289.3,251.4 290.2,251.7 291.1,252.1 292.0,252.5 293.0,252.7 293.9,253.2 294.8,253.7 295.7,254.2 296.6,254.8 297.5,255.4 298.5,255.9 299.4,256.3 300.3,256.7 301.2,257.1 302.1,257.5 303.0,258.1 304.0,258.5 304.9,258.8 305.8,259.2 306.7,259.6 307.6,260.2 308.5,260.6 309.5,261.1 310.4,261.5 311.3,262.0 312.2,262.3 313.1,262.2 314.0,262.8 315.0,263.3 315.9,263.4 316.8,263.9 317.7,264.4 318.6,264.8 319.5,265.4 320.4,265.8 321.4,266.3 322.3,266.6 323.2,267.0 324.1,267.3 325.0,266.8 325.9,267.2 326.9,267.7 327.8,268.3 328.7,267.4 329.6,267.8 330.5,268.2 331.4,268.8 332.4,269.3 333.3,269.8 334.2,270.1 335.1,270.6 336.0,271.0 336.9,271.3 337.9,271.5 338.8,271.7 339.7,272.1 340.6,272.6 341.5,273.3 342.4,273.7 343.4,274.3 344.3,274.8 345.2,275.2 346.1,275.7 347.0,276.0 347.9,276.4 348.8,276.9 349.8,277.3 350.7,277.9 351.6,278.3 352.5,278.7 353.4,278.9 354.3,279.5 355.3,280.1 356.2,280.6 357.1,280.9 358.0,281.4 358.9,281.7 359.8,282.3 360.8,282.6 361.7,282.9 362.6,283.1 363.5,283.6 364.4,283.9 365.3,283.9 366.3,284.1 367.2,284.5 368.1,285.1 369.0,285.7 369.9,286.1 370.8,286.5 371.8,287.0 372.7,287.4 373.6,287.6 374.5,288.0 375.4,287.8 376.3,288.3 377.2,288.5 378.2,287.2 379.1,286.3 380.0,286.1 380.9,285.1 381.8,285.6 382.7,285.9 383.7,286.1 384.6,286.7 385.5,287.1 386.4,287.6 387.3,288.2 388.2,288.6 389.2,289.2 390.1,289.7 391.0,290.2 391.9,290.8 392.8,290.9 393.7,291.3 394.7,291.8 395.6,292.4 396.5,292.9 397.4,293.5 398.3,294.0 399.2,294.4 400.2,294.8 401.1,295.4 402.0,295.6 402.9,296.0 403.8,296.1 404.7,296.7 405.6,297.1 406.6,297.5 407.5,297.8 408.4,298.4 409.3,297.3 410.2,297.7 411.1,296.8 412.1,297.1 413.0,294.6 413.9,294.9 414.8,295.2 415.7,295.8 416.6,296.4 417.6,296.8 418.5,297.2 419.4,297.8 420.3,298.2 421.2,298.6 422.1,299.0 423.1,299.2 424.0,299.4 424.9,299.8 425.8,300.3 426.7,300.9 427.6,300.9 428.6,301.3 429.5,302.0 430.4,302.4 431.3,302.8 432.2,303.2 433.1,303.5 434.0,303.7 435.0,304.3 435.9,304.8 436.8,305.2 437.7,305.8 438.6,306.2 439.5,306.3 440.5,306.9 441.4,307.4 442.3,308.0 443.2,308.5 444.1,307.5 445.0,308.0 446.0,308.5 446.9,309.1 447.8,309.5 448.7,309.7 449.6,309.9 450.5,310.3 451.5,310.9 452.4,311.5 453.3,311.9 454.2,312.3 455.1,312.5 456.0,311.5 457.0,312.1 457.9,312.7 458.8,312.5 459.7,312.9 460.6,313.1 461.5,313.7 462.4,314.2 463.4,314.6 464.3,315.1 465.2,315.3 466.1,315.4 467.0,316.0 467.9,315.1 468.9,315.5 469.8,315.9 470.7,316.3 471.6,315.2 472.5,315.4 473.4,315.8 474.4,316.3 475.3,316.6 476.2,316.9 477.1,317.5 478.0,317.9 478.9,318.6 479.9,319.0 480.8,319.3 481.7,319.8 482.6,320.4 483.5,320.9 484.4,321.4 485.3,321.7 486.3,322.0 487.2,322.1 488.1,322.6 489.0,323.2 489.9,323.8 490.8,323.9 491.8,324.3 492.7,324.8 493.6,325.3 494.5,325.6 495.4,326.2 496.3,326.6 497.3,327.1 498.2,327.7 499.1,328.0 500.0,328.6 500.9,329.1 501.8,329.2 502.8,329.4 503.7,330.0 504.6,330.2 505.5,330.6 506.4,330.7 507.3,331.1 508.3,331.6 509.2,332.0 510.1,332.4 511.0,332.9 511.9,333.4 512.8,333.9 513.7,334.3 514.7,334.7 515.6,335.3 516.5,335.5 517.4,335.9 518.3,336.5 519.2,337.1 520.2,337.7 521.1,338.2 522.0,338.4 522.9,338.4 523.8,338.7 524.7,339.3 525.7,339.8 526.6,340.3 527.5,340.8 528.4,341.2 529.3,341.6 530.2,341.8 531.2,342.2 532.1,342.8 533.0,343.2 533.9,343.8 534.8,343.9 535.7,344.2 536.7,344.3 537.6,344.8 538.5,345.2 539.4,345.8 540.3,346.3 541.2,346.6 542.1,346.7 543.1,347.3 544.0,347.8 544.9,348.4 545.8,349.0 546.7,349.3 547.6,349.7 548.6,349.8 549.5,350.3 550.4,349.3 551.3,349.9 552.2,350.4 553.1,350.8 554.1,351.3 555.0,351.3 555.9,351.8 556.8,352.4 557.7,352.9 558.6,353.3 559.6,353.6 560.5,354.2 561.4,354.7 562.3,355.1 563.2,353.9 564.1,354.2 565.1,354.6 566.0,355.0 566.9,355.5 567.8,355.9 568.7,356.4 569.6,355.4 570.5,355.6 571.5,356.2 572.4,356.6 573.3,357.0 574.2,357.6 575.1,358.0 576.0,358.6 577.0,359.0 577.9,359.4 578.8,359.9 579.7,360.5 580.6,360.8 581.5,361.0 582.5,361.4 583.4,362.0 584.3,362.4 585.2,362.7 586.1,363.0 587.0,361.9 588.0,362.3 588.9,362.8 589.8,363.2 590.7,363.7 591.6,362.7 592.5,363.1 593.5,363.7 594.4,364.2 595.3,364.8 596.2,365.2 597.1,365.7 598.0,366.2 598.9,366.5 599.9,366.8 600.8,367.2 601.7,367.5 602.6,368.1 603.5,368.6 604.4,369.0 605.4,369.1 606.3,369.2 607.2,369.8 608.1,370.3 609.0,370.8 609.9,371.4 610.9,372.0 611.8,372.5 612.7,372.5 613.6,372.9 614.5,373.5 615.4,374.0 616.4,374.4 617.3,375.0 618.2,375.5 619.1,376.1 620.0,376.5 620.9,376.6 621.9,377.0 622.8,377.4 623.7,377.9 624.6,378.2 625.5,378.8 626.4,379.2 627.3,379.7 628.3,380.2 629.2,380.5 630.1,381.1 631.0,381.1 631.9,378.5 632.8,378.8 633.8,379.3 634.7,379.9 635.6,380.5 636.5,381.1 637.4,381.7 638.3,382.3 639.3,382.8 640.2,383.1 641.1,383.7 642.0,383.8 642.9,384.4 643.8,384.6 644.8,385.2 645.7,385.7 646.6,386.3 647.5,385.3 648.4,385.9 649.3,386.2 650.3,386.7 651.2,387.1 652.1,386.1 653.0,386.7 653.9,387.3 654.8,387.5 655.7,388.0 656.7,388.6 657.6,389.1 658.5,389.7 659.4,389.9 660.3,390.2 661.2,390.3 662.2,390.8 663.1,391.0 664.0,390.1 664.9,390.6 665.8,391.0 666.7,391.5 667.7,391.9 668.6,392.1 669.5,392.2 670.4,392.4 671.3,392.7 672.2,393.3 673.2,393.8 674.1,394.3 675.0,394.8 675.9,395.1 676.8,395.6 677.7,395.7 678.7,396.1 679.6,396.3 680.5,396.6 681.4,397.1 682.3,397.7 683.2,398.2 684.1,398.4 685.1,398.9 686.0,399.0 686.9,398.1 687.8,398.5 688.7,399.1 689.6,399.5 690.6,399.9 691.5,400.3 692.4,400.7 693.3,401.2 694.2,401.7 695.1,402.2 696.1,402.7 697.0,403.0 697.9,403.0 698.8,403.5 699.7,404.0 700.6,404.1 701.6,403.2 702.5,403.6 703.4,404.2 704.3,404.6 705.2,404.9 706.1,405.3 707.1,405.8 708.0,406.4 708.9,406.7 709.8,407.1 710.7,407.6 711.6,407.9 712.5,408.3 713.5,408.8 714.4,409.3 715.3,410.0 716.2,410.4 717.1,410.8 718.0,411.2 719.0,411.7 719.9,412.1 720.8,411.2 721.7,411.5 722.6,412.0 723.5,412.2 724.5,412.2 725.4,412.5 726.3,413.1 727.2,413.4 728.1,413.7 729.0,414.2 730.0,414.5 730.9,414.7 731.8,415.0 732.7,415.6 733.6,415.7 734.5,416.2 735.4,416.4 736.4,417.0 737.3,416.0 738.2,416.5 739.1,417.1 740.0,417.6 740.9,417.9 741.9,418.5 742.8,418.9 743.7,419.3 744.6,419.9 745.5,420.4 746.4,420.8 747.4,419.8 748.3,420.4 749.2,420.7 750.1,421.1 751.0,421.5 751.9,420.6 752.9,420.6 753.8,421.2 754.7,421.7 755.6,422.2 756.5,422.6 757.4,423.1 758.4,423.5 759.3,423.9 760.2,424.6 761.1,425.1 762.0,425.7 762.9,425.6 763.8,426.0 764.8,426.4 765.7,426.9 766.6,427.3 767.5,427.7 768.4,428.3 769.3,428.9 770.3,429.5 771.2,430.0 772.1,430.2 773.0,430.6 773.9,430.9 774.8,431.2 775.8,431.8 776.7,431.9 777.6,432.5 778.5,433.0 779.4,433.4 780.3,433.7 781.3,433.9 782.2,434.4 783.1,434.5 784.0,434.8 784.9,435.2 785.8,435.8 786.8,436.3 787.7,436.8 788.6,437.4 789.5,437.7 790.4,438.3 791.3,438.7 792.2,438.9 793.2,439.4 794.1,438.5 795.0,439.0 795.9,439.6 796.8,439.8 797.7,440.3 798.7,440.5 799.6,441.1 800.5,441.7 801.4,442.0 802.3,442.4 803.2,443.0 804.2,443.5 805.1,443.8 806.0,444.3 806.9,444.8 807.8,445.4 808.7,445.9 809.7,446.4 810.6,446.8 811.5,447.2 812.4,447.8 813.3,448.1 814.2,448.3 815.2,448.9 816.1,449.4 817.0,449.9 817.9,450.5 818.8,450.9 819.7,451.3 820.6,451.9 821.6,452.2 822.5,452.5 823.4,452.9 824.3,453.5 825.2,454.0 826.1,454.2 827.1,454.8 828.0,454.9 828.9,455.5 829.8,455.7 830.7,456.3 831.6,456.7 832.6,457.2 833.5,457.8 834.4,458.3 835.3,458.9 836.2,459.0 837.1,459.3 838.1,459.5 839.0,459.9 839.9,460.3 840.8,460.9 841.7,461.3 842.6,461.9 843.6,462.4 844.5,462.7 845.4,463.1 846.3,463.6 847.2,464.2 848.1,464.8 849.0,465.2 850.0,465.2 850.9,465.7 851.8,466.2 852.7,465.3 853.6,465.6 854.5,466.2 855.5,466.9 856.4,466.0 857.3,466.2 858.2,466.5 859.1,467.0 860.0,467.5 861.0,467.6 861.9,467.6 862.8,468.0 863.7,468.2 864.6,468.3 865.5,468.7 866.5,469.0 867.4,469.6 868.3,470.2 869.2,470.7 870.1,470.8 871.0,471.0 872.0,471.4 872.9,471.9 873.8,472.2 874.7,472.7 875.6,473.0 876.5,473.3 877.4,473.9 878.4,474.4 879.3,475.0 880.2,475.5 881.1,475.6 882.0,476.0 882.9,476.4 883.9,476.8 884.8,476.9 885.7,477.6 886.6,478.0 887.5,478.0 888.4,478.6 889.4,479.1 890.3,479.6 891.2,480.0 892.1,480.5 893.0,481.0 893.9,481.1 894.9,481.4 895.8,481.8 896.7,481.7 897.6,481.6 898.5,480.4 899.4,480.8 900.4,481.3 901.3,481.6 902.2,482.1 903.1,482.6 904.0,483.2 904.9,483.7 905.8,482.8 906.8,483.0 907.7,483.4 908.6,483.9 909.5,484.2 910.4,484.5 911.3,483.6 912.3,484.0 913.2,484.4 914.1,485.0 915.0,485.3 915.9,485.7 916.8,486.3 917.8,486.7 918.7,487.3 919.6,487.9 920.5,487.0 921.4,487.6 922.3,488.0 923.3,488.5 924.2,488.7 925.1,489.1 926.0,489.6 926.9,489.8 927.8,490.3 928.8,490.8 929.7,491.4 930.6,491.7 931.5,491.9 932.4,492.0 933.3,491.8 934.2,492.1 935.2,492.7 936.1,493.2 937.0,493.8 937.9,494.2 938.8,494.7 939.7,495.2 940.7,495.4 941.6,495.9 942.5,496.4 943.4,496.7 944.3,497.1 945.2,497.3 946.2,497.5 947.1,498.0 948.0,498.6 948.9,498.7 949.8,499.1 950.7,498.2 951.7,498.8 952.6,499.0 953.5,499.4 954.4,500.0 955.3,500.6 956.2,501.0 957.2,501.5 958.1,502.0 959.0,502.6 959.9,502.7 960.8,503.1 961.7,503.5 962.6,504.1 963.6,503.9 964.5,504.4 965.4,505.0 966.3,505.4 967.2,505.8 968.1,506.1 969.1,506.5 970.0,506.9 970.9,507.3 971.8,507.9 972.7,506.8 973.6,507.3 974.6,507.7 975.5,508.2 976.4,508.7 977.3,507.6 978.2,508.2 979.1,508.6 980.1,508.6 981.0,509.0 981.9,509.6 982.8,510.2 983.7,510.3 984.6,510.9 985.5,511.4 986.5,512.0 987.4,512.7 988.3,513.2 989.2,513.7 990.1,513.8 991.0,514.3 992.0,513.4 992.9,513.9 993.8,514.6 994.7,515.1 995.6,515.6 996.5,516.0 997.5,516.4 998.4,517.0 999.3,517.4 1000.2,517.7 1001.1,518.0 1002.0,518.3 1003.0,518.6 1003.9,519.0 1004.8,519.5 1005.7,520.1 1006.6,520.4 1007.5,520.9 1008.5,521.1 1009.4,521.4 1010.3,522.0 1011.2,522.4 1012.1,522.8 1013.0,523.3 1013.9,523.8 1014.9,522.5 1015.8,523.1 1016.7,523.7 1017.6,524.1 1018.5,524.2 1019.4,524.8 1020.4,525.1 1021.3,525.7 1022.2,496.7 1023.1,497.4 1024.0,497.9 1024.9,498.1 1025.9,498.2 1026.8,498.7 1027.7,499.2 1028.6,499.7 1029.5,500.1 1030.0,500.3"/><line x1="1050" y1="170" x2="1070" y2="170" stroke="#4C78A8" stroke-width="4"/><text x="1080" y="175" fill="#1d2433" font-family="Inter, Arial, sans-serif" font-size="15">Pick 2 (-31.9%)</text><line x1="1050" y1="198" x2="1070" y2="198" stroke="#7A5195" stroke-width="4"/><text x="1080" y="203" fill="#1d2433" font-family="Inter, Arial, sans-serif" font-size="15">Pick 5 (-30.9%)</text><line x1="1050" y1="226" x2="1070" y2="226" stroke="#E45756" stroke-width="4"/><text x="1080" y="231" fill="#1d2433" font-family="Inter, Arial, sans-serif" font-size="15">Pick 7 (-23.1%)</text><line x1="1050" y1="254" x2="1070" y2="254" stroke="#1F9D8A" stroke-width="4"/><text x="1080" y="259" fill="#1d2433" font-family="Inter, Arial, sans-serif" font-size="15">Pick 9 (-42.7%)</text></svg>